<?xml version="1.0" standalone="no"?>
<!DOCTYPE svg PUBLIC "-//W3C//DTD SVG 1.1//EN" "http://www.w3.org/Graphics/SVG/1.1/DTD/svg11.dtd" >
<svg xmlns="http://www.w3.org/2000/svg" xmlns:xlink="http://www.w3.org/1999/xlink" version="1.1">
<metadata>
Created by FontForge 20170731 at Mon Mar 15 21:54:26 2021
 By Aleksey,,,
Copyright (c) 2016 by Lucas LE BIHAN. All rights reserved. Greek characters added by George Triantafyllakos (atypical.gr | backpacker.gr)
Polish diacritics added by Maciej Poczyn'ski
</metadata>
<defs>
<font id="SportingGrotesque-Regular" horiz-adv-x="1638" >
  <font-face 
    font-family="Sporting Grotesque"
    font-weight="400"
    font-stretch="normal"
    units-per-em="2048"
    panose-1="0 0 0 0 0 0 0 0 0 0"
    ascent="1591"
    descent="-457"
    x-height="1137"
    cap-height="1591"
    bbox="-184 -1169 2681 2189"
    underline-thickness="147"
    underline-position="-369"
    unicode-range="U+000D-FB02"
  />
<missing-glyph horiz-adv-x="888" 
 />
    <glyph glyph-name="f_f" unicode="ff" horiz-adv-x="1728" 
d="M1389 1458q-106 0 -168 -47t-62 -129q0 -40 15.5 -76t31.5 -52l15 -17h417v-154h-405v-983h-246v983h-467v-983h-246v983h-254v154h328q-6 2 -15.5 5.5t-33.5 18.5t-43 34t-34 53t-15 75q0 53 24 104t71 95t127 71t181 27q238 0 353 -162q48 72 152.5 117t264.5 45
q99 0 185 -18.5t144.5 -48.5t106.5 -66t76.5 -72t48 -66t26.5 -49l7 -18l-254 -74q-2 10 -7.5 27t-30.5 60t-58 76t-95.5 60t-139.5 27zM659 1458q-96 0 -154.5 -46t-58.5 -126q0 -40 15.5 -77t30.5 -55l16 -17h553q-6 2 -15.5 5.5t-33.5 18.5t-43 34t-34 53t-15 75v4
q-89 131 -261 131z" />
    <glyph glyph-name="f_i" unicode="fi" horiz-adv-x="1445" 
d="M987 0v983h-467v-983h-246v983h-254v154h328q-6 2 -15.5 5.5t-33.5 18.5t-43 34t-34 53t-15 75q0 54 25.5 104t77.5 94.5t144.5 71.5t213.5 27q99 0 185 -18.5t144.5 -48.5t106.5 -66t76.5 -72t48 -66t26.5 -49l7 -18l-254 -74q-2 10 -7.5 27t-30.5 60t-58.5 76t-96 60
t-139.5 27q-106 0 -168 -47t-62 -129q0 -40 15.5 -76t30.5 -52l16 -17h725v-1137h-246z" />
    <glyph glyph-name="f_l" unicode="fl" horiz-adv-x="1417" 
d="M987 0v983h-467v-983h-246v983h-254v154h326q-8 3 -17.5 6.5t-33.5 19t-41.5 34.5t-32 52.5t-14.5 73.5q0 53 24 104t71 95t127 71t181 27q81 0 150 -21t109 -50.5t68.5 -59.5t38.5 -51l11 -21v152q58 0 119.5 5.5t93.5 11.5l33 5v-1591h-246zM508 1137h479
q0 7 -1.5 18.5t-9.5 44.5t-20.5 63.5t-38 67.5t-58.5 63.5t-85 45t-115 18.5q-96 0 -154.5 -46t-58.5 -126q0 -40 15.5 -77t30.5 -55z" />
    <glyph glyph-name=".notdef" horiz-adv-x="888" 
 />
    <glyph glyph-name=".null" horiz-adv-x="0" 
 />
    <glyph glyph-name="nonmarkingreturn" horiz-adv-x="682" 
 />
    <glyph glyph-name="NULL" horiz-adv-x="0" 
 />
    <glyph glyph-name="NULL" horiz-adv-x="0" 
 />
    <glyph glyph-name="CR" unicode="&#xd;" horiz-adv-x="888" 
 />
    <glyph glyph-name="space" unicode=" " horiz-adv-x="888" 
 />
    <glyph glyph-name="exclam" unicode="!" horiz-adv-x="593" 
d="M164 1591h266l-20 -1099h-226zM164 0v297h266v-297h-266z" />
    <glyph glyph-name="quotedbl" unicode="&#x22;" horiz-adv-x="901" 
d="M184 983v608h164v-608h-164zM553 983v608h164v-608h-164z" />
    <glyph glyph-name="numbersign" unicode="#" horiz-adv-x="1331" 
d="M1141 580v-103h-250l-105 -477h-110l104 477h-364l-105 -477h-112l104 477h-221v103h244l65 307h-205v102h228l104 475h115l-105 -475h363l104 475h115l-104 -475h243v-102h-266l-68 -307h226zM438 580h365l65 307h-362z" />
    <glyph glyph-name="dollar" unicode="$" 
d="M862 -457h-88v432q-152 12 -275 55.5t-200 102.5t-130 133t-75.5 141t-25.5 132l274 79q-1 -8 -1.5 -22t4.5 -55.5t17 -79.5t43 -86.5t75.5 -86t120.5 -68t173 -40.5v525l-227 53q-200 46 -303 152.5t-103 252.5q0 92 38 173t113 145t199 101.5t283 37.5v453h88v-455
q99 -6 184 -25.5t145 -48.5t109.5 -64.5t80 -73.5t53.5 -75.5t34.5 -71t18 -59t7.5 -40.5l1 -15l-274 -74q0 4 0.5 10.5t-1.5 27.5t-6.5 41.5t-16 49t-28 53.5t-44.5 52t-63 47.5t-87 37t-113 23.5v-475l242 -53q467 -105 467 -459q0 -145 -91 -249.5t-243 -155t-348 -50.5
h-27v-428zM698 975l76 -17v459h-4q-160 0 -256 -63.5t-96 -165.5q0 -86 69 -134t211 -79zM934 668l-72 16v-510h21q188 0 299.5 69t111.5 171q0 46 -16 80.5t-42.5 59t-75.5 46t-98 35.5t-128 33z" />
    <glyph glyph-name="percent" unicode="%" horiz-adv-x="1892" 
d="M41 1208q0 184 122 299t310 115t310 -115t122 -299t-122 -297.5t-310 -113.5t-310 113.5t-122 297.5zM1319 1606l98 -50l-846 -1562l-94 47zM166 1208q0 -139 80 -227t227 -88t227 88t80 227t-80 227.5t-227 88.5t-227 -88.5t-80 -227.5zM987 389q0 184 122 299t310 115
t310 -115t122 -299t-122 -298t-310 -114t-310 114t-122 298zM1112 389q0 -139 80 -227t227 -88t227 88t80 227t-80 227.5t-227 88.5t-227 -88.5t-80 -227.5z" />
    <glyph glyph-name="ampersand" unicode="&#x26;" horiz-adv-x="1726" 
d="M123 1397v194h1378v-194l-569 -588q234 -291 450 -635h344v-174h-237q63 -108 117.5 -209.5t77.5 -148.5l24 -48l-270 -81q-74 199 -230 487h-1167v195l618 639q-265 323 -536 563zM346 1417q230 -194 449 -444l430 444h-879zM317 174h793q-147 255 -319 488z" />
    <glyph glyph-name="quotesingle" unicode="'" horiz-adv-x="532" 
d="M184 983v608h164v-608h-164z" />
    <glyph glyph-name="parenleft" unicode="(" horiz-adv-x="780" 
d="M82 694q0 132 31 255t83.5 218t120 176t141.5 136t145.5 89t135.5 44v-84q-47 -10 -102 -39t-115.5 -77t-116 -119t-100.5 -157t-71.5 -201t-26.5 -241t26.5 -241t71.5 -200.5t100.5 -157t116 -119t115.5 -76.5t102 -39v-84q-77 12 -164 57t-175 126t-158.5 185t-115 248
t-44.5 301z" />
    <glyph glyph-name="parenright" unicode=")" horiz-adv-x="780" 
d="M698 694q0 -157 -44.5 -301t-115 -248t-158.5 -185t-175 -126t-164 -57v84q47 10 102 39t115.5 76.5t116 119t100.5 157t71.5 200.5t26.5 241t-26.5 241t-71.5 201t-100.5 157t-116 119t-115.5 77t-102 39v84q64 -10 135.5 -44t145.5 -89t141.5 -136t120 -176t83.5 -218
t31 -255z" />
    <glyph glyph-name="asterisk" unicode="*" horiz-adv-x="888" 
d="M494 1309h-88l18 227l-158 -172l-61 63l172 142l-232 -4v90l232 -21l-172 162l61 64l152 -183l-12 238h88l-11 -238l150 178l63 -61l-172 -158l228 19v-90l-232 16l176 -151l-63 -62l-150 170z" />
    <glyph glyph-name="plus" unicode="+" horiz-adv-x="1331" 
d="M614 1188h103v-574h573v-102h-573v-573h-103v573h-573v102h573v574z" />
    <glyph glyph-name="comma" unicode="," horiz-adv-x="634" 
d="M451 297v-246q0 -71 -17 -139t-41 -115t-48 -84t-41 -55l-17 -18l-181 53q7 4 20 12.5t46.5 38t61.5 62.5t56.5 85.5t39.5 108.5h-146v297h267z" />
    <glyph glyph-name="hyphen" unicode="-" horiz-adv-x="1028" 
d="M946 532h-864v154h864v-154z" />
    <glyph glyph-name="period" unicode="." horiz-adv-x="634" 
d="M184 0v297h267v-297h-267z" />
    <glyph glyph-name="slash" unicode="/" horiz-adv-x="501" 
d="M477 1493l105 -33l-562 -1685l-100 30z" />
    <glyph glyph-name="zero" unicode="0" 
d="M1516 797q0 -181 -44 -331.5t-129.5 -261t-219 -172t-304.5 -61.5t-304.5 61.5t-218.5 172.5t-129 261t-44 331q0 144 27.5 269t84 227t138.5 174.5t195.5 112.5t250.5 40q171 0 304.5 -61t219 -171.5t129.5 -260t44 -330.5zM1235 797q0 136 -22.5 245.5t-70.5 195
t-130 132.5t-193 47t-193 -47t-130 -132.5t-70.5 -195t-22.5 -245.5q0 -137 22.5 -247t70.5 -196t130 -133t193 -47t193 47t130 133t70.5 196t22.5 247z" />
    <glyph glyph-name="one" unicode="1" 
d="M1536 0h-1311v174h615l-2 1243q0 -97 -15 -163.5t-54 -121t-109 -85.5t-176 -47.5t-259 -16.5v203q158 0 269 19.5t190.5 66t117.5 125t38 194.5h266v-1417h430v-174z" />
    <glyph glyph-name="two" unicode="2" 
d="M1464 1098q0 -89 -28.5 -174.5t-73.5 -155t-112.5 -139t-132 -121t-146.5 -106.5t-142 -90t-131.5 -76.5t-103.5 -61.5h901v-174h-1311v154q21 9 57 25t140 69.5t198.5 110.5t209.5 144t198 174t140 197t57 216q0 143 -91.5 235t-273.5 92q-90 0 -159 -26t-109.5 -71.5
t-61 -102.5t-20.5 -123q0 -60 20 -116t48.5 -93.5t57.5 -66.5t49 -42l20 -14l-275 -80q-8 6 -21 18t-46.5 52.5t-59 86t-46.5 117.5t-21 148q0 94 39.5 184t114 165t198.5 121t278 46q307 0 473 -145t166 -377z" />
    <glyph glyph-name="three" unicode="3" 
d="M793 729h-103v174h103q183 0 292 70t109 192q0 111 -93.5 181.5t-246.5 70.5q-86 0 -154.5 -20.5t-108.5 -54t-68.5 -73t-40 -79.5t-17 -73.5t-5.5 -54.5l1 -20l-275 82q1 10 4.5 28t22 69.5t45.5 98.5t80 104t121 98.5t173.5 69.5t231.5 28q271 0 441 -120.5t170 -297.5
q0 -69 -23 -126t-56.5 -92t-80.5 -61.5t-87 -39t-83.5 -20t-62.5 -8.5t-31 -1q14 0 34 -1t68.5 -9.5t92 -22.5t95 -44.5t88.5 -71t62 -106t25 -146.5q0 -98 -36 -178.5t-98.5 -136t-148.5 -93.5t-184.5 -56t-208.5 -18q-115 0 -214 19t-168.5 50.5t-127 73t-93.5 87.5
t-63 91.5t-40 87t-21 73t-9 50.5l-2 19l275 80q4 -1 -0.5 -23.5t5.5 -61.5t21.5 -83.5t46.5 -91t80.5 -84t125 -61t178.5 -23.5q188 0 294.5 72.5t106.5 208.5q0 274 -442 274z" />
    <glyph glyph-name="four" unicode="4" 
d="M82 385v256l864 950h352v-1032h320v-174h-320v-385h-266v385h-950zM1032 1397l-743 -838h743v838z" />
    <glyph glyph-name="five" unicode="5" 
d="M1516 522q0 -171 -86 -296.5t-240 -190t-359 -64.5q-145 0 -263.5 30.5t-192 79t-128.5 107t-81.5 117.5t-42.5 107.5t-19 79.5l-2 30l275 80q0 -5 -0.5 -15t2 -39t8 -57.5t19.5 -67t35 -71.5t56 -67t80 -57.5t110.5 -38.5t143.5 -15q183 0 293.5 96.5t110.5 251.5
t-110.5 250.5t-293.5 95.5q-68 0 -127.5 -10t-95.5 -24.5t-63 -29t-38 -24.5l-11 -10h-273l146 821h1073v-174h-846l-96 -553q4 8 13 22t45 50t81 63t124.5 49.5t172.5 22.5q114 0 219.5 -40t185 -110.5t127.5 -174.5t48 -224z" />
    <glyph glyph-name="six" unicode="6" 
d="M1516 498q0 -151 -85.5 -272t-237.5 -188t-341 -67q-171 0 -309.5 61.5t-230 171.5t-140.5 261.5t-49 331.5q0 179 50.5 330t143.5 260.5t232.5 171t310.5 61.5q86 0 163 -15.5t134 -42t106 -60.5t83 -72t61 -75.5t43 -71.5t26.5 -60.5t14.5 -42.5l4 -15l-272 -82
q-1 7 -2.5 19t-11.5 46.5t-24 66.5t-42.5 70.5t-65 66t-93 46.5t-124.5 19q-148 0 -253 -83t-154.5 -220.5t-49.5 -316.5q0 -19 5 -111q44 163 194 250.5t356 87.5q107 0 204 -31t177.5 -92.5t128.5 -165.5t48 -237zM852 821q-159 0 -269.5 -85.5t-142.5 -221.5
q46 -159 150 -249.5t262 -90.5q190 0 286.5 89t96.5 235q0 145 -96.5 234t-286.5 89z" />
    <glyph glyph-name="seven" unicode="7" 
d="M1577 1591v-235q-8 -1 -23.5 -3t-63 -17t-96.5 -38.5t-119 -73.5t-135.5 -116t-141.5 -171.5t-141.5 -233.5t-130 -310t-112.5 -393h-286q59 270 147.5 494t183.5 366.5t196 251.5t190.5 164.5t161 90t113.5 42.5l42 8h-1301v174h1516z" />
    <glyph glyph-name="eight" unicode="8" 
d="M1495 1176q0 -63 -21 -117t-55 -91t-74.5 -67t-81.5 -47t-75 -29t-55 -16l-21 -4q9 0 25 -1.5t62 -10.5t88 -22.5t93.5 -42t88 -65.5t62 -95.5t25.5 -129.5q0 -119 -60 -210.5t-164 -146.5t-234 -82.5t-279 -27.5q-150 0 -280 27.5t-234 82.5t-163.5 146.5t-59.5 210.5
q0 67 22.5 124.5t59 96.5t80.5 70.5t88 49.5t80.5 30t59.5 16l22 4q-7 1 -20 4t-49.5 15t-69.5 27.5t-73.5 44t-69.5 62.5t-49 84.5t-20 109.5q0 130 91 232t244.5 157t340.5 55t340.5 -55t244.5 -157t91 -232zM424 1176q0 -47 16 -86t41 -65t60.5 -46t71 -30.5t76 -17.5
t70.5 -9t60 -2q395 0 395 256q0 103 -100 172t-295 69t-295 -69t-100 -172zM1276 438q0 54 -19.5 98.5t-50.5 74t-74 52t-84.5 34.5t-88 20t-79 10t-61.5 2q-95 0 -173.5 -15t-144 -47t-102.5 -90.5t-37 -138.5q0 -70 35.5 -122t99.5 -82.5t144.5 -45t177.5 -14.5t177 14.5
t144 44.5t100 82.5t36 122.5z" />
    <glyph glyph-name="nine" unicode="9" 
d="M1516 795q0 -239 -86.5 -424.5t-255 -292.5t-396.5 -107q-86 0 -163 15.5t-134 42t-106 60.5t-83 72t-61 75.5t-43 71.5t-26.5 60.5t-14.5 41.5l-4 16l273 82q1 -7 2.5 -19t11.5 -46.5t24 -66.5t42.5 -70.5t64.5 -66t92.5 -46.5t124.5 -19q112 0 200 47.5t143.5 132
t84.5 196.5t29 245q0 40 -4 110q-42 -149 -180 -243.5t-371 -94.5q-85 0 -164 19t-151 60.5t-125.5 102t-85 149.5t-31.5 196q0 151 85.5 271.5t237 187.5t340.5 67q228 0 394.5 -107t251 -292t84.5 -426zM403 1094q0 -146 96.5 -235t286.5 -89q160 0 270 87.5t142 219.5
q-47 160 -151.5 250t-260.5 90q-190 0 -286.5 -89t-96.5 -234z" />
    <glyph glyph-name="colon" unicode=":" horiz-adv-x="634" 
d="M184 840v297h267v-297h-267zM184 0v297h267v-297h-267z" />
    <glyph glyph-name="semicolon" unicode=";" horiz-adv-x="634" 
d="M184 840v297h267v-297h-267zM451 297v-246q0 -71 -17 -139t-41 -115t-48 -84t-41 -55l-17 -18l-181 53q7 4 20 12.5t46.5 38t61.5 62.5t56.5 85.5t39.5 108.5h-146v297h267z" />
    <glyph glyph-name="less" unicode="&#x3c;" horiz-adv-x="1331" 
d="M154 588l929 512l54 -94l-858 -471l856 -472l-54 -92l-927 510v107z" />
    <glyph glyph-name="equal" unicode="=" horiz-adv-x="1331" 
d="M1249 860v-102h-1167v102h1167zM1249 369v-103h-1167v103h1167z" />
    <glyph glyph-name="greater" unicode="&#x3e;" horiz-adv-x="1331" 
d="M248 1100l930 -512v-107l-928 -510l-53 92l856 472l-856 471z" />
    <glyph glyph-name="question" unicode="?" horiz-adv-x="1556" 
d="M1434 1159q0 -67 -24.5 -123.5t-64 -96t-90.5 -77t-104 -65.5t-104 -61.5t-90.5 -66.5t-64 -78.5t-24.5 -98.5h-225q0 79 28 139.5t73 99t99.5 70t109 61.5t99.5 64.5t73 87.5t28 123q0 53 -21 102.5t-61.5 89.5t-107.5 64t-150 24q-76 0 -139 -16.5t-105 -44t-74.5 -63
t-50.5 -75.5t-30 -79.5t-15 -75t-4 -63t1 -44.5l1 -16l-274 82q1 12 3.5 34t18.5 84t41.5 118.5t78.5 125.5t122.5 118.5t180.5 83.5t245 34q138 0 248 -30t178 -77.5t113.5 -110t63.5 -123t18 -120.5zM623 0v297h266v-297h-266z" />
    <glyph glyph-name="at" unicode="@" horiz-adv-x="2347" 
d="M1622 0q-109 0 -149.5 58.5t-40.5 211.5q-3 -6 -9.5 -17t-29.5 -42t-49.5 -59t-70 -62.5t-91 -59.5t-113 -42t-135.5 -17q-92 0 -166.5 25t-123 67.5t-81.5 100t-47 119t-14 129.5q0 132 41 252.5t111.5 210t161.5 156t193.5 100.5t204.5 34q63 0 115.5 -13t87 -34.5
t62 -47t42 -50.5t23.5 -46.5t12 -34.5l3 -13l161 211h140l-211 -942q-19 -89 41 -89q52 0 147 68q119 86 201 226t82 311q0 186 -73 339.5t-197.5 253.5t-287.5 154.5t-345 54.5q-181 0 -353.5 -71.5t-305 -194.5t-213.5 -302.5t-81 -381.5q0 -215 71.5 -392t200 -298
t310.5 -187.5t399 -66.5q225 0 433 98t327 265h129q-155 -224 -388.5 -344.5t-522.5 -120.5q-243 0 -448 75t-348 209t-223.5 324.5t-80.5 415.5q0 236 83.5 437t230.5 341.5t354 219.5t448 79q154 0 300.5 -40t269.5 -116.5t216.5 -180.5t146 -239.5t52.5 -285.5
q0 -115 -24 -216.5t-64 -176.5t-92.5 -137.5t-109 -103.5t-114.5 -69t-108 -40.5t-90 -12.5zM1053 154q157 0 285 119.5t175 293.5q18 68 18.5 129.5t-17.5 114t-52.5 91t-90.5 60t-128 21.5q-91 0 -176.5 -39t-152 -106.5t-106.5 -167.5t-40 -215q0 -130 74 -215.5
t211 -85.5z" />
    <glyph glyph-name="A" unicode="A" horiz-adv-x="1994" 
d="M1669 0l-227 506h-891l-227 -506h-283l737 1591h439l737 -1591h-285zM963 1417l-332 -737h733l-330 737h-71z" />
    <glyph glyph-name="B" unicode="B" horiz-adv-x="1738" 
d="M1616 453q0 -228 -174.5 -340.5t-540.5 -112.5h-717v1591h676q715 0 715 -389q0 -63 -19 -116t-49 -88t-66.5 -62t-73 -41.5t-66.5 -24t-49 -12.5l-19 -2q8 0 22 -2t53.5 -11.5t75.5 -24.5t80.5 -46t76 -71.5t53.5 -105t22 -142.5zM451 903h409q78 0 140 7t118.5 25
t94 46.5t59.5 74t22 105.5t-22 105t-59.5 73.5t-94 46t-118.5 24.5t-140 7h-409v-514zM451 729v-555h450q78 0 140 7.5t118.5 26.5t94 49.5t59.5 80t22 115.5t-22 115t-59.5 79.5t-94 49t-118 25.5t-140.5 7h-450z" />
    <glyph glyph-name="C" unicode="C" horiz-adv-x="2015" 
d="M1849 961l-274 -82q0 7 -1 19t-7.5 48.5t-16.5 72.5t-31 84t-48.5 90t-71.5 84.5t-97.5 72t-129 48.5t-162.5 19q-188 0 -327 -82.5t-209.5 -222.5t-70.5 -317q0 -175 75.5 -315.5t219.5 -223t332 -82.5q117 0 213 28t155.5 72.5t104 98.5t65.5 108t33.5 98.5t14.5 72.5
l2 28l274 -80q-1 -8 -3 -22t-14 -57t-29 -84.5t-51 -98.5t-76.5 -105.5t-110 -98t-147.5 -84.5t-191.5 -57t-239.5 -22q-208 0 -379.5 62t-286.5 171.5t-178 261t-63 329.5q0 180 60 331t171 261t279.5 171.5t376.5 61.5q158 0 289.5 -36.5t216 -94.5t149.5 -128.5
t98.5 -140.5t54 -128t26.5 -94z" />
    <glyph glyph-name="D" unicode="D" horiz-adv-x="1890" 
d="M901 1591q400 0 633 -213t233 -583q0 -368 -233 -581.5t-633 -213.5h-717v1591h717zM451 1417v-1243h327q341 0 525 158t184 463t-184 463.5t-525 158.5h-327z" />
    <glyph glyph-name="E" unicode="E" horiz-adv-x="1525" 
d="M184 0v1591h1200v-174h-933v-532h876v-174h-876v-537h993v-174h-1260z" />
    <glyph glyph-name="F" unicode="F" horiz-adv-x="1425" 
d="M184 0v1591h1200v-174h-933v-532h876v-174h-876v-711h-267z" />
    <glyph glyph-name="G" unicode="G" horiz-adv-x="2013" 
d="M1843 1022l-274 -82q-1 10 -4 27t-18 66.5t-36.5 95t-65.5 100.5t-100 94.5t-143.5 66.5t-191.5 27q-188 0 -327 -82.5t-209.5 -222.5t-70.5 -317q0 -176 69.5 -316t204 -222.5t312.5 -82.5q85 0 158.5 15.5t126 42.5t96 61t71.5 72.5t49.5 76.5t32 72t17.5 61t8 43l2 15
h-600v174h867v-807h-267v307q-2 -7 -7 -19t-26.5 -47t-48.5 -66.5t-76.5 -70.5t-108.5 -67t-147 -47t-188 -19q-186 0 -341 62t-261 171t-164.5 261t-58.5 330q0 180 60 331t171 261t279.5 171.5t376.5 61.5q119 0 223 -20.5t180.5 -55t141 -79.5t107.5 -94.5t77 -99
t52.5 -94.5t31 -79.5t16.5 -55.5z" />
    <glyph glyph-name="H" unicode="H" horiz-adv-x="1904" 
d="M1454 0v711h-1003v-711h-267v1591h267v-706h1003v706h266v-1591h-266z" />
    <glyph glyph-name="I" unicode="I" horiz-adv-x="634" 
d="M184 1591h267v-1591h-267v1591z" />
    <glyph glyph-name="J" unicode="J" horiz-adv-x="1585" 
d="M397 680q-8 -31 -8 -68q0 -197 94.5 -317.5t278.5 -120.5t278.5 120.5t94.5 317.5v979h266v-979q0 -320 -169 -480.5t-470 -160.5q-298 0 -467 157.5t-172 471.5z" />
    <glyph glyph-name="K" unicode="K" horiz-adv-x="1765" 
d="M1417 0l-706 805l-260 -232v-573h-267v1591h267v-753l823 753h328l-717 -635l839 -956h-307z" />
    <glyph glyph-name="L" unicode="L" horiz-adv-x="1361" 
d="M184 0v1591h267v-1417h911v-174h-1178z" />
    <glyph glyph-name="M" unicode="M" horiz-adv-x="2502" 
d="M1251 174l658 1417h409v-1591h-266v1315l-627 -1315h-348l-626 1315v-1315h-267v1591h410z" />
    <glyph glyph-name="N" unicode="N" horiz-adv-x="1906" 
d="M1722 1591v-1591h-327l-944 1315v-1315h-267v1591h328l944 -1315v1315h266z" />
    <glyph glyph-name="O" unicode="O" horiz-adv-x="2103" 
d="M1980 795q0 -178 -66.5 -330t-185.5 -261t-294 -171t-383 -62t-382.5 62t-294 171t-185.5 261t-66 330t66 330.5t185.5 261.5t294 171t382.5 62t382.5 -62t294 -171t186 -261.5t66.5 -330.5zM1700 795q0 131 -47.5 245.5t-131.5 197.5t-206 131t-264 48
q-189 0 -337.5 -82t-229.5 -223.5t-81 -316.5q0 -174 81 -315.5t229.5 -223.5t337.5 -82q142 0 264 48t206 131t131.5 197.5t47.5 244.5z" />
    <glyph glyph-name="P" unicode="P" horiz-adv-x="1615" 
d="M184 1591h676q368 0 541.5 -105t173.5 -325q0 -221 -173.5 -326.5t-541.5 -105.5h-409v-729h-267v1591zM451 903h409q78 0 140 7t118.5 25t94 46.5t59.5 74t22 105.5t-22 105t-59.5 73.5t-94 46t-118.5 24.5t-140 7h-409v-514z" />
    <glyph glyph-name="Q" unicode="Q" horiz-adv-x="2103" 
d="M1829 -94l59 -219q-3 -5 -9.5 -13.5t-33 -30.5t-60.5 -39t-95 -30.5t-134 -13.5q-95 0 -166.5 26t-111 70t-58.5 93.5t-20 103.5q0 75 29 131q-93 -13 -178 -13q-208 0 -382.5 62t-294 171t-185.5 261t-66 330t66 330.5t185.5 261.5t294 171t382.5 62t382.5 -62t294 -171
t186 -261.5t66.5 -330.5q0 -278 -155.5 -485t-427.5 -290q-2 -1 -6 -2.5t-14 -9t-17.5 -17t-14 -27t-6.5 -38.5q0 -85 53.5 -125.5t161.5 -40.5q69 0 122.5 15t81 36.5t45 43t21.5 36.5zM1700 795q0 131 -47.5 245.5t-131.5 197.5t-206 131t-264 48q-189 0 -337.5 -82
t-229.5 -223.5t-81 -316.5q0 -174 81 -315.5t229.5 -223.5t337.5 -82q142 0 264 48t206 131t131.5 197.5t47.5 244.5z" />
    <glyph glyph-name="R" unicode="R" horiz-adv-x="1738" 
d="M184 1591h676q368 0 541.5 -105t173.5 -325q0 -176 -132.5 -268t-348.5 -92q60 -7 114 -25t105.5 -49t89.5 -82t55 -117q86 -331 111 -415t47 -113h-277q-22 29 -43 106.5t-92 376.5q-22 93 -71 144.5t-147.5 76.5t-268.5 25h-266v-729h-267v1591zM451 903h409
q78 0 140 7t118.5 25t94 46.5t59.5 74t22 105.5t-22 105t-59.5 73.5t-94 46t-118.5 24.5t-140 7h-409v-514z" />
    <glyph glyph-name="S" unicode="S" horiz-adv-x="1667" 
d="M713 975l405 -90q467 -105 467 -459q0 -145 -91 -249.5t-243 -155t-348 -50.5q-149 0 -275 27t-212.5 73t-151.5 103t-103 122.5t-57 125.5t-22 117l274 79q-1 -6 -1.5 -15.5t2 -40t8.5 -60t22.5 -69.5t41 -74t66.5 -69.5t95.5 -60t132.5 -40t174 -15.5q188 0 300 69
t112 171q0 38 -10 68t-32.5 54t-50 42t-72 34.5t-88 28.5t-108.5 27l-387 90q-200 46 -302.5 152.5t-102.5 252.5q0 73 23.5 139.5t74 125t124.5 101t181.5 67t237.5 24.5q112 0 207.5 -16t163 -43.5t123 -63.5t90 -75.5t60.5 -78.5t38.5 -75t19.5 -63.5t9 -43.5l1 -16
l-274 -74q1 14 0 37.5t-22 83t-62.5 105t-137 83t-229.5 37.5q-160 0 -256 -63.5t-96 -165.5q0 -86 69.5 -133.5t211.5 -79.5z" />
    <glyph glyph-name="T" unicode="T" horiz-adv-x="1611" 
d="M0 1417v174h1612v-174h-676v-1417h-260v1417h-676z" />
    <glyph glyph-name="U" unicode="U" horiz-adv-x="1875" 
d="M1425 1591h267v-934q0 -686 -754 -686t-754 686v934h267v-934q0 -88 11.5 -157t32 -119.5t53.5 -87t71.5 -59.5t91 -36.5t105.5 -18.5t122 -5t122 5t105.5 18.5t91 36.5t71.5 59.5t53.5 87t32 119.5t11.5 157v934z" />
    <glyph glyph-name="V" unicode="V" horiz-adv-x="1871" 
d="M1831 1591l-707 -1591h-376l-707 1591h285l610 -1417l610 1417h285z" />
    <glyph glyph-name="W" unicode="W" horiz-adv-x="2721" 
d="M2681 1591l-543 -1591h-377l-401 1315l-399 -1315h-377l-543 1591h285l446 -1417l426 1417h326l426 -1417l446 1417h285z" />
    <glyph glyph-name="X" unicode="X" horiz-adv-x="1744" 
d="M20 0l699 797l-699 794h308l544 -620l545 620h307l-698 -794l698 -797h-307l-545 621l-544 -621h-308z" />
    <glyph glyph-name="Y" unicode="Y" horiz-adv-x="1744" 
d="M739 772l-719 819h308l544 -620l545 620h307l-718 -819v-772h-267v772z" />
    <glyph glyph-name="Z" unicode="Z" horiz-adv-x="1521" 
d="M1481 174v-174h-1440v195l1102 1222h-1102v174h1440v-194l-1102 -1223h1102z" />
    <glyph glyph-name="bracketleft" unicode="[" horiz-adv-x="681" 
d="M641 -264v-103h-518v2042h518v-102h-416v-1837h416z" />
    <glyph glyph-name="backslash" unicode="\" horiz-adv-x="501" 
d="M-80 1460l105 33l557 -1688l-101 -30z" />
    <glyph glyph-name="bracketright" unicode="]" horiz-adv-x="681" 
d="M41 -367v103h416v1837h-416v102h518v-2042h-518z" />
    <glyph glyph-name="underscore" unicode="_" horiz-adv-x="1044" 
d="M1004 -123v-102h-963v102h963z" />
    <glyph glyph-name="grave" unicode="`" horiz-adv-x="1488" 
d="M819 1681h307l238 -385h-137z" />
    <glyph glyph-name="a" unicode="a" horiz-adv-x="1441" 
d="M1157 272q-3 -118 90 -118q44 0 80.5 25.5t50.5 50.5l15 26l49 -182q-3 -4 -9.5 -11t-29.5 -25t-51 -31.5t-75.5 -24.5t-100.5 -11q-108 0 -181 63t-73 202v194q-3 -10 -10 -26.5t-30.5 -64t-50.5 -91t-71.5 -96.5t-92.5 -91t-114 -64t-135 -26q-124 0 -199.5 71
t-75.5 179q0 61 21.5 121t77.5 125t141.5 118t224 96.5t314.5 63.5q-2 1 0.5 13.5t-2.5 34t-11 46.5t-24.5 50.5t-43 46.5t-67 34t-96.5 13t-101 -12.5t-79 -33t-58 -45t-41 -48.5t-25.5 -44.5t-13.5 -33.5l-4 -12l-254 73q2 7 7 19t25.5 47.5t47 67t73.5 70.5t102.5 67.5
t137.5 47.5t175 19q124 0 221.5 -32t158 -88.5t91 -131.5t28.5 -163zM403 272q0 -58 28.5 -88t80.5 -30q62 0 126 38.5t113.5 95.5t89.5 120t61 116.5t20 79.5v72q-131 -33 -229 -77.5t-151.5 -86t-86.5 -89t-42.5 -82t-9.5 -69.5z" />
    <glyph glyph-name="b" unicode="b" horiz-adv-x="1529" 
d="M430 1591v-665q4 10 12.5 26t42.5 57t76.5 72.5t116.5 57.5t160 26q253 0 411 -167.5t158 -430.5q0 -262 -157.5 -429t-411.5 -167q-73 0 -137 16.5t-107.5 43t-78.5 58t-55.5 63.5t-34.5 58.5t-19 43.5l-5 16l-77 -270h-140v1569q58 0 119.5 5.5t94.5 11.5zM760 154
q179 0 282 113t103 300t-103 301.5t-282 114.5q-119 0 -207 -57.5t-131 -151t-43 -207.5q0 -176 101.5 -294.5t279.5 -118.5z" />
    <glyph glyph-name="c" unicode="c" horiz-adv-x="1488" 
d="M1112 453l254 -74q-2 -9 -5.5 -23.5t-22 -57t-43.5 -81t-74 -85.5t-109.5 -81t-154 -57t-203.5 -23q-126 0 -239 40t-201 114t-139.5 189t-51.5 255q0 127 42.5 236.5t121 189t196 125t260.5 45.5q134 0 238.5 -34.5t167.5 -87t105 -124.5t59 -138.5t20 -137.5l-254 -74
q5 63 -2.5 121t-31.5 112t-63 94t-100 63.5t-139 23.5q-171 0 -264.5 -113.5t-93.5 -300.5q0 -195 110.5 -305t288.5 -110q67 0 121 16.5t87 43t57.5 58t36 63.5t18 58.5t7.5 42.5z" />
    <glyph glyph-name="d" unicode="d" horiz-adv-x="1529" 
d="M1100 926v643q57 0 118.5 5.5t94.5 11.5l33 5v-1591h-140l-78 270q-2 -6 -5.5 -17t-18.5 -42t-34.5 -59t-55 -62.5t-78.5 -59.5t-107 -42t-137 -17q-254 0 -411.5 167t-157.5 429q0 263 158 430.5t411 167.5q86 0 159.5 -24.5t117.5 -59.5t75.5 -70.5t43.5 -60.5z
M770 154q178 0 279.5 118.5t101.5 294.5q0 114 -43 207.5t-131 151t-207 57.5q-179 0 -282 -114.5t-103 -301.5t103 -300t282 -113z" />
    <glyph glyph-name="e" unicode="e" horiz-adv-x="1488" 
d="M1366 379q-2 -9 -5.5 -23.5t-21.5 -57t-43 -81t-74 -85.5t-109.5 -81t-154.5 -57t-204 -23q-126 0 -239 40t-201 114t-139.5 189t-51.5 255q0 128 42.5 237t122 188.5t199.5 125t267 45.5q103 0 188 -21.5t143 -57.5t103.5 -83t71 -99t43.5 -104t24 -99t8.5 -83t0.5 -58
l-1 -21l-950 20q3 -190 113.5 -297.5t285.5 -107.5q67 0 121 16.5t87.5 43t58 58t36 63.5t18 58.5t7.5 42.5v17zM1075 694q0 6 -1.5 16.5t-9 40.5t-20 57t-38.5 60.5t-59.5 57.5t-87.5 40.5t-120 16.5q-139 0 -228 -80t-116 -219z" />
    <glyph glyph-name="f" unicode="f" horiz-adv-x="1015" 
d="M676 1458q-106 0 -168 -47t-62 -129q0 -40 15.5 -76t30.5 -52l16 -17h418v-154h-406v-983h-246v983h-254v154h328q-6 2 -15.5 5.5t-33.5 18.5t-43 34t-34 53t-15 75q0 54 25.5 104t77.5 94.5t144.5 71.5t213.5 27q99 0 185 -18.5t144.5 -48.5t106.5 -66t76.5 -72t48 -66
t26.5 -49l7 -18l-254 -74q-2 10 -7.5 27t-30.5 60t-58.5 76t-96 60t-139.5 27z" />
    <glyph glyph-name="g" unicode="g" horiz-adv-x="1488" 
d="M752 373q-106 0 -197 16q-60 -8 -104.5 -36.5t-44.5 -86.5q0 -112 176 -112h389q103 0 183 -17.5t130.5 -46t83.5 -68.5t46 -82.5t13 -91.5q0 -325 -602 -325h-266q-109 0 -192.5 17t-132.5 43t-80 61.5t-41.5 68.5t-10.5 68q0 107 102 170t255 63q-13 0 -34 2t-75.5 14
t-96.5 31t-76 60t-34 96q0 44 24.5 79t58.5 55t81 34.5t81.5 20t70.5 8.5q-149 47 -224 142.5t-75 211.5q0 79 34.5 149t103 126t184 89t263.5 33q257 0 410 -96q-37 67 -40.5 121t26.5 91t101 51.5t177 0.5l49 -182q-104 18 -173 -1.5t-78.5 -59.5t18.5 -86q96 -99 96 -236
q0 -79 -34.5 -148.5t-103 -125.5t-182 -88.5t-259.5 -32.5zM422 768q0 -104 78 -173t245 -69q166 0 244 69t78 173q0 107 -77.5 175.5t-244.5 68.5t-245 -68.5t-78 -175.5zM952 -27l-348 27q-5 0 -13.5 -0.5t-33 -4t-47 -9.5t-50 -19.5t-47 -31.5t-33 -47.5t-13.5 -65.5
q0 -97 89 -135.5t318 -38.5q206 0 297.5 39.5t91.5 134.5q0 68 -48.5 105t-162.5 46z" />
    <glyph glyph-name="h" unicode="h" horiz-adv-x="1531" 
d="M430 1591v-741q1 7 3.5 18t15.5 44t31.5 62.5t53.5 66t78.5 62.5t111 44t146.5 18q478 0 478 -460v-705h-246v700q0 141 -83 212t-239 71q-64 0 -116.5 -13.5t-88 -35t-63 -50.5t-42.5 -57.5t-24.5 -59t-12.5 -52t-3 -39.5v-676h-246v1569q64 0 125.5 5.5t90.5 11.5z" />
    <glyph glyph-name="i" unicode="i" horiz-adv-x="614" 
d="M184 1395v196h246v-196h-246zM184 0v1137h246v-1137h-246z" />
    <glyph glyph-name="j" unicode="j" horiz-adv-x="636" 
d="M207 1395v196h246v-196h-246zM207 14v1123h246v-1106q0 -240 -103.5 -378t-300.5 -138q-46 0 -87.5 9.5t-67 23.5t-44 28t-26.5 24l-8 9l49 182q2 -4 5.5 -9.5t16 -21t27 -27t39 -21t51.5 -9.5q203 0 203 311z" />
    <glyph glyph-name="k" unicode="k" horiz-adv-x="1339" 
d="M184 0v1569q64 0 125.5 5.5t90.5 11.5l30 5v-925l500 471h299l-508 -480l618 -657h-317l-475 514l-117 -111v-403h-246z" />
    <glyph glyph-name="l" unicode="l" horiz-adv-x="614" 
d="M184 0v1569q58 0 119.5 5.5t94.5 11.5l32 5v-1591h-246z" />
    <glyph glyph-name="m" unicode="m" horiz-adv-x="2326" 
d="M1896 0v700q0 283 -280 283q-69 0 -124.5 -17.5t-90 -47t-58.5 -62.5t-36 -69.5t-16.5 -63t-4.5 -47.5v-676h-246v715q-9 268 -280 268q-69 0 -124.5 -17.5t-90 -47t-58.5 -62.5t-36 -69.5t-16.5 -63t-4.5 -47.5v-676h-246v1137h119l105 -338q1 8 3.5 21t16 51t32 72.5
t55 77t82.5 72.5t117.5 51t155.5 21q187 0 283.5 -80t122.5 -235q11 37 28 72t53 81.5t82.5 80t121.5 57.5t165 24q117 0 198.5 -31t128.5 -92t68 -143t21 -194v-705h-246z" />
    <glyph glyph-name="n" unicode="n" horiz-adv-x="1531" 
d="M1102 0v700q0 141 -83 212t-239 71q-64 0 -116.5 -13.5t-88 -35t-63 -50.5t-42.5 -57.5t-24.5 -59t-12.5 -52t-3 -39.5v-676h-246v1137h119l105 -338q1 8 2.5 21t13 51t29 72.5t53.5 77t82.5 72.5t119.5 51t162 21q478 0 478 -460v-705h-246z" />
    <glyph glyph-name="o" unicode="o" horiz-adv-x="1536" 
d="M123 569q0 125 44.5 234t125.5 189.5t203.5 126.5t271.5 46t271.5 -46t203.5 -126.5t125.5 -189.5t44.5 -234q0 -126 -44 -235t-125.5 -190t-204 -127t-271.5 -46t-271.5 46t-204 127t-125.5 190t-44 235zM385 569q0 -187 103 -301t280 -114q174 0 278.5 114.5
t104.5 300.5t-104.5 300t-278.5 114q-177 0 -280 -113.5t-103 -300.5z" />
    <glyph glyph-name="p" unicode="p" horiz-adv-x="1529" 
d="M184 1137h140l77 -271q2 6 5.5 17t18.5 42t34.5 59t55.5 62.5t79 59.5t107 42t137 17q254 0 411.5 -167t157.5 -429q0 -263 -158 -430.5t-411 -167.5q-64 0 -121 13.5t-97 34.5t-73.5 47t-54.5 52t-35.5 47t-20.5 35l-6 13v-670h-246v1594zM760 983q-119 0 -207 -57
t-131 -150t-43 -207t43 -207t131 -150.5t207 -57.5q179 0 282 114t103 301t-103 300.5t-282 113.5z" />
    <glyph glyph-name="q" unicode="q" horiz-adv-x="1529" 
d="M1206 1137h140v-1594h-246v668q-4 -10 -12.5 -26t-42.5 -57.5t-76.5 -73t-116.5 -57.5t-160 -26q-253 0 -411 167.5t-158 430.5q0 262 157.5 429t411.5 167q73 0 137 -16.5t107 -43t78.5 -58t55.5 -63.5t34 -58.5t19 -43.5l5 -16zM770 983q-179 0 -282 -113.5
t-103 -300.5t103 -301t282 -114q119 0 207 57.5t131 150.5t43 207t-43 207t-131 150t-207 57z" />
    <glyph glyph-name="r" unicode="r" horiz-adv-x="1048" 
d="M430 674v-674h-246v1137h119l105 -338q1 8 3 21t12 51t24.5 72.5t42.5 77t63 72.5t89 51t118 21q68 0 117.5 -22t77.5 -61.5t40.5 -87.5t12.5 -107q0 -64 -10 -124.5t-20 -88.5l-11 -29l-254 -74q43 132 43 263q0 149 -101 149q-55 0 -101 -38.5t-71.5 -92t-39 -101.5
t-13.5 -77z" />
    <glyph glyph-name="s" unicode="s" horiz-adv-x="1325" 
d="M926 750q0 3 0.5 8t-1 21t-5 31.5t-13 36.5t-23 39t-37 36.5t-53.5 31.5t-74 21t-97 8q-119 0 -177.5 -40t-58.5 -105q0 -106 229 -146l279 -49q348 -62 348 -315q0 -107 -68 -189t-182.5 -125t-255.5 -43q-96 0 -179.5 14t-144 37.5t-111 54t-84 64.5t-59.5 68t-40 64.5
t-23 54t-12 37.5l-2 14l254 74q-1 -6 -1.5 -17t4.5 -42t16.5 -59t40.5 -62.5t70.5 -59.5t112 -42t160.5 -17q112 0 177 43t65 110q0 60 -54.5 101t-183.5 65l-249 45q-180 32 -264.5 114t-84.5 193q0 105 65 183t173.5 117.5t243.5 39.5q106 0 194 -19t143.5 -49t98 -66.5
t64 -73t34.5 -66.5t16 -49l3 -19z" />
    <glyph glyph-name="t" unicode="t" horiz-adv-x="1089" 
d="M41 983v154h264v258l236 164v-422h467v-154h-467v-571q0 -132 49.5 -195t148.5 -63q56 0 103 17t75 41t47.5 47.5t27.5 40.5l7 17l50 -182q-4 -7 -13 -18t-41.5 -39t-70.5 -50t-101.5 -39.5t-134.5 -17.5q-188 0 -290.5 102.5t-102.5 311.5v598h-254z" />
    <glyph glyph-name="u" unicode="u" horiz-adv-x="1531" 
d="M430 1137v-701q0 -141 83 -211.5t239 -70.5q64 0 116.5 13.5t88 35t63 50.5t42.5 57.5t24.5 59t12.5 52t3 39.5v676h246v-1137h-119l-105 338q-1 -8 -2.5 -21t-13 -51t-29 -73t-53.5 -77t-82.5 -72.5t-119.5 -51.5t-162 -21q-478 0 -478 461v705h246z" />
    <glyph glyph-name="v" unicode="v" horiz-adv-x="1368" 
d="M1348 1137l-531 -1137h-268l-529 1137h283l381 -918l385 918h279z" />
    <glyph glyph-name="w" unicode="w" horiz-adv-x="2070" 
d="M461 0l-441 1137h283l305 -918l279 918h297l280 -918l303 918h283l-438 -1137h-271l-305 952l-307 -952h-268z" />
    <glyph glyph-name="x" unicode="x" horiz-adv-x="1355" 
d="M20 0l517 565l-517 572h306l352 -420l352 420h305l-518 -572l518 -565h-313l-344 418l-342 -418h-316z" />
    <glyph glyph-name="y" unicode="y" horiz-adv-x="1302" 
d="M504 -2l33 74l-517 1065h283l359 -805l342 805h278l-551 -1137q-124 -254 -228.5 -369.5t-238.5 -115.5q-43 0 -81.5 9.5t-63.5 23.5t-44 28t-27 24l-9 9l29 182q2 -5 6 -11.5t17 -21t28.5 -26t40.5 -20.5t53 -9q74 0 153.5 81.5t137.5 213.5z" />
    <glyph glyph-name="z" unicode="z" horiz-adv-x="1249" 
d="M82 0v174l799 809h-799v154h1085v-174l-788 -809h788v-154h-1085z" />
    <glyph glyph-name="braceleft" unicode="{" horiz-adv-x="626" 
d="M61 598v184q35 1 66.5 9t62.5 26.5t45.5 56t6.5 89.5l-43 278q-12 76 1.5 137.5t47 103t85 70t111.5 42.5t131 18l11 -84q-72 -7 -122.5 -24.5t-89 -51.5t-53 -91t-4.5 -138l33 -271q8 -63 -6 -113.5t-44 -80.5t-63.5 -46.5t-70.5 -21.5q37 -5 70.5 -21.5t63.5 -46.5
t44 -80.5t6 -113.5l-33 -270q-10 -81 4.5 -138t53 -91t89 -51.5t122.5 -24.5l-11 -82q-72 4 -131.5 17.5t-111.5 42t-85 69t-46.5 102t-1.5 137.5l43 279q8 52 -6.5 89.5t-45.5 55.5t-62.5 26t-66.5 9z" />
    <glyph glyph-name="bar" unicode="|" horiz-adv-x="348" 
d="M123 1493h102v-1718h-102v1718z" />
    <glyph glyph-name="braceright" unicode="}" horiz-adv-x="626" 
d="M565 782v-184q-35 -1 -66.5 -9t-62 -26t-45 -55.5t-6.5 -89.5l43 -279q12 -76 -2 -137.5t-47 -102t-85 -69t-111.5 -42t-131.5 -17.5l-10 82q72 7 122.5 24.5t88.5 51.5t52.5 91t4.5 138l-33 270q-8 63 6 113.5t44.5 80.5t64 46.5t70.5 21.5q-37 5 -70.5 21.5t-64 46.5
t-44.5 80.5t-6 113.5l33 271q10 81 -4.5 138t-52.5 91t-88.5 51.5t-122.5 24.5l10 84q71 -4 131 -18t112 -42.5t85.5 -70t47 -103t1.5 -137.5l-43 -278q-8 -52 6.5 -89.5t45 -56t62 -26.5t66.5 -9z" />
    <glyph glyph-name="exclamdown" unicode="&#xa1;" horiz-adv-x="593" 
d="M164 154v297h266v-297h-266zM430 -1141h-266l20 1100h226z" />
    <glyph glyph-name="cent" unicode="&#xa2;" 
d="M862 -457h-88v430q-117 8 -220.5 51t-183.5 117t-126.5 184.5t-46.5 243.5q0 251 155.5 416.5t421.5 177.5v428h88v-426q123 -6 219.5 -42.5t155 -89t97 -122.5t54.5 -134.5t19 -133.5l-254 -74q6 74 -6.5 141.5t-45 126.5t-94 97.5t-145.5 46.5v-827q66 0 119 17
t86 43.5t57.5 58t35.5 63.5t17.5 58t7.5 42l1 17l254 -74q-1 -8 -5 -22t-21 -55t-41 -78.5t-70.5 -84t-103.5 -80.5t-145 -59t-192 -29v-428zM459 569q0 -170 85.5 -277t229.5 -132v821q-151 -15 -233 -126.5t-82 -285.5z" />
    <glyph glyph-name="sterling" unicode="&#xa3;" 
d="M379 1147q0 -31 5.5 -60t13 -51t23.5 -47.5t27 -41t34.5 -40t35 -35t40 -36.5t38.5 -35h469v-103h-373q84 -113 84 -260q0 -113 -43 -207q8 -6 23.5 -15.5t72 -25.5t121.5 -16q79 0 141.5 28t100 72.5t64 98.5t37 108t16 98.5t5.5 72.5l-1 28l274 -80q-1 -13 -3 -35.5
t-16 -88t-36.5 -125t-68.5 -132t-106.5 -124.5t-157.5 -88t-214 -36q-59 0 -116.5 13t-98.5 31.5t-74 37.5t-49 32l-16 13q-4 -5 -11 -13.5t-35 -30.5t-61 -39t-90 -30.5t-121 -13.5q-150 0 -231.5 65.5t-81.5 188.5q0 114 69.5 183t196.5 69q95 0 160.5 -28.5t132.5 -81.5
q6 27 6 57q0 43 -14 80.5t-45 73t-58.5 59.5t-74.5 61h-373v103h250q-152 141 -152 317q0 76 23.5 146.5t77 135.5t131 113.5t194.5 77.5t260 29q109 0 202 -18.5t157.5 -49.5t116 -71t83 -84.5t54 -89.5t32.5 -85t15.5 -71t5.5 -49v-19l-274 -82q1 9 1.5 24t-3.5 58
t-15.5 82.5t-40.5 87.5t-71.5 82.5t-115 58t-165.5 23.5q-192 0 -289.5 -70.5t-97.5 -199.5zM301 106q36 0 69.5 11.5t55.5 28t38.5 32.5t23.5 28l8 11q-12 11 -39 37t-42.5 38.5t-39 29.5t-46.5 24.5t-48 7.5q-61 0 -92 -34.5t-31 -88.5t39 -89.5t104 -35.5z" />
    <glyph glyph-name="yen" unicode="&#xa5;" 
d="M686 772l-666 819h328l471 -620l471 620h328l-666 -819v-92h451v-102h-451v-226h451v-102h-451v-250h-266v250h-450v102h450v226h-450v102h450v92z" />
    <glyph glyph-name="brokenbar" unicode="&#xa6;" horiz-adv-x="348" 
d="M123 1493h102v-686h-102v686zM123 461h102v-686h-102v686z" />
    <glyph glyph-name="section" unicode="&#xa7;" horiz-adv-x="1325" 
d="M834 266q194 -58 301.5 -167.5t107.5 -227.5q0 -107 -68 -189t-182.5 -124.5t-255.5 -42.5q-96 0 -179.5 14t-144 37.5t-111 54t-84 64t-59.5 67.5t-40 64.5t-23 54t-12 37.5l-2 14l254 74q-1 -6 -1.5 -17t4.5 -42t16.5 -59t40.5 -62.5t70.5 -59.5t112 -42t160.5 -17
q113 0 177.5 46.5t64.5 119.5q0 64 -43.5 120t-153.5 109l-290 139q-173 82 -261 163t-88 179q0 44 21 85t54.5 72.5t79 58.5t91.5 45t96 32q-187 78 -296 183t-109 215q0 107 68 189t182.5 124.5t255.5 42.5q96 0 179.5 -14t144 -37.5t111 -54t84 -64.5t59.5 -68t40 -64.5
t23 -54t11 -37.5l3 -14l-254 -73q1 6 1.5 17t-4.5 42t-16.5 59t-40.5 62.5t-70.5 59.5t-112 42t-160.5 17q-111 0 -176.5 -47.5t-65.5 -116.5q0 -133 201 -232l299 -145q88 -43 151 -83.5t98.5 -73t55.5 -67.5t25.5 -61.5t5.5 -60.5q0 -51 -31 -98t-83.5 -82t-110 -61
t-121.5 -44zM623 711q-96 0 -156.5 -29t-60.5 -80q0 -27 16 -56t49 -57.5t93 -46.5t138 -18q95 0 158.5 30.5t63.5 80.5q-5 72 -88.5 124t-212.5 52z" />
    <glyph glyph-name="dieresis" unicode="&#xa8;" horiz-adv-x="733" 
d="M39 1395v196h246v-196h-246zM449 1395v196h245v-196h-245z" />
    <glyph glyph-name="copyright" unicode="&#xa9;" horiz-adv-x="2179" 
d="M123 637q0 200 75.5 379.5t204 308t308 204t379.5 75.5t379.5 -75.5t308 -204t203.5 -308t75 -379.5t-75 -379.5t-203.5 -308t-308 -204t-379.5 -75.5t-379.5 75.5t-308 204t-204 308t-75.5 379.5zM238 635q0 -174 67 -332t181 -272t272 -181t332 -67t332 67t272 181
t181 272t67 332t-67 332t-181 272t-272 181t-332 67t-332 -67t-272 -181t-181 -272t-67 -332zM1710 772l-250 -74q0 7 -0.5 19.5t-7.5 48t-19.5 67.5t-41 71.5t-67.5 68t-103 48t-144 19.5q-181 0 -286 -114t-105 -289q0 -174 111 -290t293 -116q60 0 111 12.5t87.5 33.5
t66 48t47.5 57.5t32 60.5t20.5 57t10.5 48t5 34v12l250 -70q-1 -10 -4 -28t-19.5 -69.5t-41.5 -98t-74 -104t-112 -98.5t-162 -69t-217 -28q-300 0 -478 171t-178 437q0 131 43 241.5t123.5 192t203 127t273.5 45.5q123 0 224.5 -26t165.5 -67.5t112.5 -92t72 -100.5
t38 -91.5t17.5 -67.5z" />
    <glyph glyph-name="guillemotleft" unicode="&#xab;" horiz-adv-x="1128" 
d="M61 567l371 449h184l-309 -449l309 -448h-184zM512 567l371 449h184l-309 -449l309 -448h-184z" />
    <glyph glyph-name="registered" unicode="&#xae;" horiz-adv-x="2179" 
d="M123 637q0 200 75.5 379.5t204 308t308 204t379.5 75.5t379.5 -75.5t308 -204t203.5 -308t75 -379.5t-75 -379.5t-203.5 -308t-308 -204t-379.5 -75.5t-379.5 75.5t-308 204t-204 308t-75.5 379.5zM238 635q0 -174 67 -332t181 -272t272 -181t332 -67t332 67t272 181
t181 272t67 332t-67 332t-181 272t-272 181t-332 67t-332 -67t-272 -181t-181 -272t-67 -332zM598 1219h498q267 0 394.5 -82.5t127.5 -249.5q0 -108 -68 -182t-188 -80q68 -7 114 -54.5t62 -115.5q54 -212 77.5 -282t59.5 -120h-266q-22 29 -37 80t-53 215l-16 64
q-21 77 -90 112t-220 35h-153v-506h-242v1166zM840 737h256q128 0 199 33.5t71 116.5t-71 116t-199 33h-256v-299z" />
    <glyph glyph-name="degree" unicode="&#xb0;" horiz-adv-x="712" 
d="M82 1223q0 112 80.5 191t191.5 79q113 0 195 -79t82 -191q0 -110 -82 -188.5t-195 -78.5q-111 0 -191.5 78.5t-80.5 188.5zM197 1223q0 -71 44.5 -116.5t112.5 -45.5q70 0 116 45.5t46 116.5q0 73 -46 119.5t-116 46.5q-68 0 -112.5 -46.5t-44.5 -119.5z" />
    <glyph glyph-name="plusminus" unicode="&#xb1;" horiz-adv-x="1331" 
d="M1290 852v-102h-573v-574h-103v574h-573v102h573v573h103v-573h573zM1290 102v-102h-1249v102h1249z" />
    <glyph glyph-name="acute" unicode="&#xb4;" horiz-adv-x="1488" 
d="M1331 1681h307l-407 -385h-137z" />
    <glyph glyph-name="mu" unicode="&#xb5;" horiz-adv-x="1531" 
d="M430 1137v-619q0 -173 84 -268.5t238 -95.5q64 0 116.5 13.5t88 35t63 50.5t42.5 57.5t24.5 59t12.5 52t3 39.5v676h246v-1137h-119l-105 338q-1 -8 -2.5 -21t-12.5 -51t-27 -73t-49 -77t-75 -72.5t-109 -51.5t-147 -21q-68 0 -154 31t-118 68v-527h-246v1594h246z" />
    <glyph glyph-name="paragraph" unicode="&#xb6;" horiz-adv-x="1462" 
d="M612 -457v1149q-165 0 -292 48t-203 150t-76 247q0 98 29.5 175.5t80.5 129t124 85.5t156.5 49t180.5 15h666v-2048h-242v1874h-178v-1874h-246z" />
    <glyph glyph-name="periodcentered" unicode="&#xb7;" horiz-adv-x="1116" 
d="M147 573q0 171 120.5 291.5t289.5 120.5q171 0 291.5 -120.5t120.5 -291.5q0 -167 -121 -287t-291 -120q-169 0 -289.5 120t-120.5 287z" />
    <glyph glyph-name="cedilla" unicode="&#xb8;" horiz-adv-x="1705" 
d="M782 45l-61 -178q40 35 110 35q72 0 117 -44t45 -126q0 -100 -77 -158.5t-193 -58.5q-45 0 -87 10t-69.5 24t-48 28t-30.5 24l-9 10l37 139q3 -5 8 -13t24 -28t40 -35.5t55 -28t70 -12.5q63 0 100 28t37 77q0 42 -23.5 66t-62.5 24q-15 0 -28.5 -4.5t-22.5 -11t-16 -13.5
t-10 -11l-3 -5l-88 6l88 256h98z" />
    <glyph glyph-name="guillemotright" unicode="&#xbb;" horiz-adv-x="1128" 
d="M246 1016l370 -449l-370 -448h-185l310 448l-310 449h185zM696 1016l371 -449l-371 -448h-184l309 448l-309 449h184z" />
    <glyph glyph-name="onequarter" unicode="&#xbc;" horiz-adv-x="1593" 
d="M1192 1606l98 -50l-846 -1562l-94 47zM655 799h-655v86h307l-2 622q0 -61 -12 -99.5t-45.5 -66.5t-93 -39.5t-154.5 -11.5v101q159 0 233 44.5t74 157.5h133v-708h215v-86zM825 193v126l432 476h177v-516h159v-86h-159v-193h-134v193h-475zM1300 698l-372 -419h372v419z
" />
    <glyph glyph-name="onehalf" unicode="&#xbd;" horiz-adv-x="1593" 
d="M1192 1606l98 -50l-846 -1562l-94 47zM655 799h-655v86h307l-2 622q0 -61 -12 -99.5t-45.5 -66.5t-93 -39.5t-154.5 -11.5v101q159 0 233 44.5t74 157.5h133v-708h215v-86zM1577 549q0 -59 -25.5 -115.5t-59.5 -97t-89.5 -84t-93.5 -67.5t-94.5 -57t-71.5 -42h450v-86
h-655v76q10 4 28 12.5t70 35t99.5 55t105 72.5t99 87.5t70 98.5t28.5 108q0 71 -46.5 117.5t-136.5 46.5q-88 0 -132 -46t-44 -116q0 -30 10 -58t24.5 -46.5t29.5 -33t25 -21.5l10 -7l-138 -41q-4 3 -10.5 9t-23.5 26.5t-30 43t-23.5 58.5t-10.5 74q0 102 83 180t232 78
q154 0 237 -72.5t83 -187.5z" />
    <glyph glyph-name="threequarters" unicode="&#xbe;" horiz-adv-x="1593" 
d="M344 1176h-51v86h51q92 0 146.5 35t54.5 96q0 56 -47 91.5t-123 35.5q-59 0 -101 -19.5t-60 -47t-27 -55.5t-9 -48v-19l-137 41q1 5 2.5 14t11 35t23 49t40 52t60.5 49.5t87 34.5t116 14q136 0 220.5 -60t84.5 -149q0 -49 -22 -84.5t-53 -52t-62.5 -26t-53.5 -10.5
l-22 -1q5 0 13.5 -0.5t32.5 -4t46.5 -10t49.5 -21.5t46 -35.5t32.5 -54t13.5 -75.5q0 -118 -96.5 -178.5t-241.5 -60.5q-73 0 -133 15t-97 39.5t-65 53.5t-41.5 58t-21.5 53.5t-9 39.5l-2 15l137 41q2 -1 0 -12t2.5 -30.5t10 -42t23 -46t40.5 -42t62.5 -30.5t89.5 -12
q94 0 147 36.5t53 104.5q0 138 -221 138zM1192 1606l98 -50l-846 -1562l-94 47zM825 193v126l432 476h177v-516h159v-86h-159v-193h-134v193h-475zM1300 698l-372 -419h372v419z" />
    <glyph glyph-name="questiondown" unicode="&#xbf;" horiz-adv-x="1556" 
d="M623 154v297h266v-297h-266zM1434 -709q0 -50 -13 -100t-41 -102.5t-77.5 -98t-115.5 -81.5t-162 -57t-212 -21q-106 0 -197 20.5t-156 55t-118.5 79.5t-87.5 94.5t-60 99t-39 94.5t-21 79.5t-10 54.5l-1 21l274 82q-1 -10 -2 -27t2 -67t13.5 -95t39.5 -100t72.5 -95
t118.5 -67t172 -27q83 0 150 24t107.5 64.5t61.5 90t21 102.5q0 70 -28 123t-73 87.5t-99.5 64.5t-109 61.5t-99.5 70t-73 99t-28 139.5h225q0 -53 24.5 -98.5t64 -78.5t90.5 -66.5t104 -62t104 -65.5t90.5 -77t64 -96.5t24.5 -123.5z" />
    <glyph glyph-name="Agrave" unicode="&#xc0;" horiz-adv-x="1994" 
d="M606 2136h307l238 -385h-137zM1669 0l-227 506h-891l-227 -506h-283l737 1591h439l737 -1591h-285zM963 1417l-332 -737h733l-330 737h-71z" />
    <glyph glyph-name="Aacute" unicode="&#xc1;" horiz-adv-x="1994" 
d="M1077 2136h307l-407 -385h-137zM1669 0l-227 506h-891l-227 -506h-283l737 1591h439l737 -1591h-285zM963 1417l-332 -737h733l-330 737h-71z" />
    <glyph glyph-name="Acircumflex" unicode="&#xc2;" horiz-adv-x="1994" 
d="M844 2136h184l361 -385h-138l-315 217l-315 -217h-138zM1669 0l-227 506h-891l-227 -506h-283l737 1591h439l737 -1591h-285zM963 1417l-332 -737h733l-330 737h-71z" />
    <glyph glyph-name="Atilde" unicode="&#xc3;" horiz-adv-x="1994" 
d="M1163 1960q29 0 52.5 12t37 29t23 33.5t12.5 28.5l4 12l82 -74q-2 -8 -6 -21.5t-21.5 -47.5t-39.5 -59.5t-62 -47t-88 -21.5q-53 0 -99.5 18t-75 39.5t-68 39.5t-80.5 18q-27 0 -50.5 -12t-37 -28.5t-23 -33.5t-13.5 -29l-3 -12l-82 74q2 8 6 21.5t21.5 47.5t39.5 59.5
t62 47t88 21.5q52 0 98.5 -18t76 -39.5t68.5 -39.5t78 -18zM1669 0l-227 506h-891l-227 -506h-283l737 1591h439l737 -1591h-285zM963 1417l-332 -737h733l-330 737h-71z" />
    <glyph glyph-name="Adieresis" unicode="&#xc4;" horiz-adv-x="1994" 
d="M670 1849v197h245v-197h-245zM1079 1849v197h246v-197h-246zM1669 0l-227 506h-891l-227 -506h-283l737 1591h439l737 -1591h-285zM963 1417l-332 -737h733l-330 737h-71z" />
    <glyph glyph-name="Aring" unicode="&#xc5;" horiz-adv-x="1994" 
d="M774 1948q0 93 65.5 160t157.5 67q97 0 162.5 -64.5t65.5 -162.5q0 -91 -68 -157.5t-160 -66.5q-91 0 -157 66.5t-66 157.5zM899 1950q0 -43 28.5 -72t71.5 -29q42 0 71.5 30.5t29.5 70.5q0 39 -29.5 69.5t-71.5 30.5q-43 0 -71.5 -28.5t-28.5 -71.5zM1669 0l-227 506
h-891l-227 -506h-283l737 1591h439l737 -1591h-285zM963 1417l-332 -737h733l-330 737h-71z" />
    <glyph glyph-name="AE" unicode="&#xc6;" horiz-adv-x="2394" 
d="M1196 0v711h-573l-320 -711h-283l738 1591h1495v-174h-791v-532h733v-174h-733v-537h850v-174h-1116zM942 1417l-240 -532h494v532h-254z" />
    <glyph glyph-name="Ccedilla" unicode="&#xc7;" horiz-adv-x="2015" 
d="M1849 961l-274 -82q0 7 -1 19t-7.5 48.5t-16.5 72.5t-31 84t-48.5 90t-71.5 84.5t-97.5 72t-129 48.5t-162.5 19q-188 0 -327 -82.5t-209.5 -222.5t-70.5 -317q0 -175 75.5 -315.5t219.5 -223t332 -82.5q117 0 213 28t155.5 72.5t104 98.5t65.5 108t33.5 98.5t14.5 72.5
l2 28l274 -80q-1 -8 -3 -22t-14 -57t-29 -84.5t-51 -98.5t-76.5 -105.5t-110 -98t-147.5 -84.5t-191.5 -57t-239.5 -22h-2l-37 -104q41 35 111 35q72 0 117 -44t45 -126q0 -100 -77.5 -158.5t-193.5 -58.5q-45 0 -87 10t-69 24t-47.5 28t-29.5 24l-10 10l36 139q3 -5 8 -13
t24 -28t40 -35.5t55 -28t70 -12.5q63 0 100 28t37 77q0 42 -23.5 66t-62.5 24q-15 0 -28.5 -4.5t-22.5 -11t-16 -13.5t-10 -11l-3 -5l-88 6l64 186q-249 19 -432.5 129t-279 288.5t-95.5 402.5q0 180 60 331t171 261t279.5 171.5t376.5 61.5q158 0 289.5 -36.5t216 -94.5
t149.5 -128.5t98.5 -140.5t54 -128t26.5 -94z" />
    <glyph glyph-name="Egrave" unicode="&#xc8;" horiz-adv-x="1525" 
d="M422 2136h307l238 -385h-138zM184 0v1591h1200v-174h-933v-532h876v-174h-876v-537h993v-174h-1260z" />
    <glyph glyph-name="Eacute" unicode="&#xc9;" horiz-adv-x="1525" 
d="M893 2136h307l-407 -385h-138zM184 0v1591h1200v-174h-933v-532h876v-174h-876v-537h993v-174h-1260z" />
    <glyph glyph-name="Ecircumflex" unicode="&#xca;" horiz-adv-x="1525" 
d="M721 2136h184l361 -385h-138l-315 217l-315 -217h-138zM184 0v1591h1200v-174h-933v-532h876v-174h-876v-537h993v-174h-1260z" />
    <glyph glyph-name="Edieresis" unicode="&#xcb;" horiz-adv-x="1525" 
d="M547 1849v197h246v-197h-246zM956 1849v197h246v-197h-246zM184 0v1591h1200v-174h-933v-532h876v-174h-876v-537h993v-174h-1260z" />
    <glyph glyph-name="Igrave" unicode="&#xcc;" horiz-adv-x="634" 
d="M-115 2136h308l237 -385h-137zM184 1591h267v-1591h-267v1591z" />
    <glyph glyph-name="Iacute" unicode="&#xcd;" horiz-adv-x="634" 
d="M356 2136h308l-408 -385h-137zM184 1591h267v-1591h-267v1591z" />
    <glyph glyph-name="Icircumflex" unicode="&#xce;" horiz-adv-x="634" 
d="M184 2136h185l360 -385h-137l-316 217l-315 -217h-137zM184 1591h267v-1591h-267v1591z" />
    <glyph glyph-name="Idieresis" unicode="&#xcf;" horiz-adv-x="634" 
d="M10 1849v197h246v-197h-246zM420 1849v197h246v-197h-246zM184 1591h267v-1591h-267v1591z" />
    <glyph glyph-name="Ntilde" unicode="&#xd1;" horiz-adv-x="1906" 
d="M1118 1956q29 0 52.5 12t37 29t23 33.5t13.5 28.5l3 12l82 -74q-2 -8 -6 -21.5t-21.5 -47.5t-39.5 -59.5t-62 -47t-88 -21.5q-53 0 -100 18t-75.5 39.5t-68 39.5t-80.5 18q-27 0 -50.5 -12t-36.5 -28.5t-22.5 -33.5t-12.5 -29l-4 -12l-82 74q2 8 6 21.5t21.5 47.5
t39.5 59.5t62 47t88 21.5q52 0 98.5 -18t76 -39.5t68.5 -39.5t78 -18zM1722 1591v-1591h-327l-944 1315v-1315h-267v1591h328l944 -1315v1315h266z" />
    <glyph glyph-name="Ograve" unicode="&#xd2;" horiz-adv-x="2103" 
d="M600 2136h307l238 -385h-137zM1980 795q0 -178 -66.5 -330t-185.5 -261t-294 -171t-383 -62t-382.5 62t-294 171t-185.5 261t-66 330t66 330.5t185.5 261.5t294 171t382.5 62t382.5 -62t294 -171t186 -261.5t66.5 -330.5zM1700 795q0 131 -47.5 245.5t-131.5 197.5
t-206 131t-264 48q-189 0 -337.5 -82t-229.5 -223.5t-81 -316.5q0 -174 81 -315.5t229.5 -223.5t337.5 -82q142 0 264 48t206 131t131.5 197.5t47.5 244.5z" />
    <glyph glyph-name="Oacute" unicode="&#xd3;" horiz-adv-x="2103" 
d="M1071 2136h307l-407 -385h-137zM1980 795q0 -178 -66.5 -330t-185.5 -261t-294 -171t-383 -62t-382.5 62t-294 171t-185.5 261t-66 330t66 330.5t185.5 261.5t294 171t382.5 62t382.5 -62t294 -171t186 -261.5t66.5 -330.5zM1700 795q0 131 -47.5 245.5t-131.5 197.5
t-206 131t-264 48q-189 0 -337.5 -82t-229.5 -223.5t-81 -316.5q0 -174 81 -315.5t229.5 -223.5t337.5 -82q142 0 264 48t206 131t131.5 197.5t47.5 244.5z" />
    <glyph glyph-name="Ocircumflex" unicode="&#xd4;" horiz-adv-x="2103" 
d="M956 2136h185l360 -385h-137l-315 217l-316 -217h-137zM1980 795q0 -178 -66.5 -330t-185.5 -261t-294 -171t-383 -62t-382.5 62t-294 171t-185.5 261t-66 330t66 330.5t185.5 261.5t294 171t382.5 62t382.5 -62t294 -171t186 -261.5t66.5 -330.5zM1700 795
q0 131 -47.5 245.5t-131.5 197.5t-206 131t-264 48q-189 0 -337.5 -82t-229.5 -223.5t-81 -316.5q0 -174 81 -315.5t229.5 -223.5t337.5 -82q142 0 264 48t206 131t131.5 197.5t47.5 244.5z" />
    <glyph glyph-name="Odieresis" unicode="&#xd6;" horiz-adv-x="2103" 
d="M725 1849v197h246v-197h-246zM1135 1849v197h245v-197h-245zM1980 795q0 -178 -66.5 -330t-185.5 -261t-294 -171t-383 -62t-382.5 62t-294 171t-185.5 261t-66 330t66 330.5t185.5 261.5t294 171t382.5 62t382.5 -62t294 -171t186 -261.5t66.5 -330.5zM1700 795
q0 131 -47.5 245.5t-131.5 197.5t-206 131t-264 48q-189 0 -337.5 -82t-229.5 -223.5t-81 -316.5q0 -174 81 -315.5t229.5 -223.5t337.5 -82q142 0 264 48t206 131t131.5 197.5t47.5 244.5z" />
    <glyph glyph-name="multiply" unicode="&#xd7;" horiz-adv-x="1331" 
d="M123 1028l74 74l469 -469l469 469l73 -74l-469 -469l469 -469l-73 -74l-469 469l-469 -469l-74 74l469 469z" />
    <glyph glyph-name="Oslash" unicode="&#xd8;" horiz-adv-x="2103" 
d="M1980 795q0 -178 -66.5 -330t-185.5 -261t-294 -171t-383 -62q-95 0 -211 17l-68 -203l-100 31l65 196q-286 76 -450 286t-164 497q0 178 66 330.5t185.5 261.5t294 171t382.5 62q105 0 211 -16l67 202l105 -32l-66 -195q285 -78 448.5 -288t163.5 -496zM403 795
q0 -201 108 -357.5t292 -222.5l393 1188q-63 14 -145 14q-189 0 -337.5 -82t-229.5 -223.5t-81 -316.5zM1700 795q0 202 -107.5 357.5t-292.5 221.5l-395 -1186q66 -14 146 -14q142 0 264 48t206 131t131.5 197.5t47.5 244.5z" />
    <glyph glyph-name="Ugrave" unicode="&#xd9;" horiz-adv-x="1875" 
d="M524 2136h307l238 -385h-137zM1425 1591h267v-934q0 -686 -754 -686t-754 686v934h267v-934q0 -88 11.5 -157t32 -119.5t53.5 -87t71.5 -59.5t91 -36.5t105.5 -18.5t122 -5t122 5t105.5 18.5t91 36.5t71.5 59.5t53.5 87t32 119.5t11.5 157v934z" />
    <glyph glyph-name="Uacute" unicode="&#xda;" horiz-adv-x="1875" 
d="M995 2136h308l-408 -385h-137zM1425 1591h267v-934q0 -686 -754 -686t-754 686v934h267v-934q0 -88 11.5 -157t32 -119.5t53.5 -87t71.5 -59.5t91 -36.5t105.5 -18.5t122 -5t122 5t105.5 18.5t91 36.5t71.5 59.5t53.5 87t32 119.5t11.5 157v934z" />
    <glyph glyph-name="Ucircumflex" unicode="&#xdb;" horiz-adv-x="1875" 
d="M823 2136h185l360 -385h-137l-316 217l-315 -217h-137zM1425 1591h267v-934q0 -686 -754 -686t-754 686v934h267v-934q0 -88 11.5 -157t32 -119.5t53.5 -87t71.5 -59.5t91 -36.5t105.5 -18.5t122 -5t122 5t105.5 18.5t91 36.5t71.5 59.5t53.5 87t32 119.5t11.5 157v934z
" />
    <glyph glyph-name="Udieresis" unicode="&#xdc;" horiz-adv-x="1875" 
d="M649 1849v197h246v-197h-246zM1059 1849v197h246v-197h-246zM1425 1591h267v-934q0 -686 -754 -686t-754 686v934h267v-934q0 -88 11.5 -157t32 -119.5t53.5 -87t71.5 -59.5t91 -36.5t105.5 -18.5t122 -5t122 5t105.5 18.5t91 36.5t71.5 59.5t53.5 87t32 119.5t11.5 157
v934z" />
    <glyph glyph-name="Yacute" unicode="&#xdd;" horiz-adv-x="1744" 
d="M928 2136h307l-408 -385h-137zM739 772l-719 819h308l544 -620l545 620h307l-718 -819v-772h-267v772z" />
    <glyph glyph-name="germandbls" unicode="&#xdf;" horiz-adv-x="1411" 
d="M1309 348q0 -173 -113 -275t-285 -102q-65 0 -120.5 17t-88.5 41t-57 48t-33 41l-10 17l49 182q2 -7 5.5 -18t19 -39t36 -49.5t57.5 -39t81 -17.5q91 0 145 55.5t54 150.5q0 77 -26 137.5t-69 99t-103.5 64t-125.5 36t-139 10.5v153q182 0 302 81t120 204
q0 128 -73.5 210.5t-217.5 82.5q-149 0 -218 -83t-69 -218v-1137h-246v1178q0 68 13 127t49 118.5t93 101.5t151.5 68.5t218.5 26.5q122 0 219.5 -26t160 -69t104 -101t58.5 -117.5t17 -124.5q0 -71 -23.5 -129t-61 -93.5t-83 -62t-91 -38.5t-83 -19t-60.5 -8l-24 -1
q10 -1 26.5 -4.5t65 -18.5t93 -35.5t98 -59.5t92.5 -87t65.5 -120.5t26.5 -157.5z" />
    <glyph glyph-name="agrave" unicode="&#xe0;" horiz-adv-x="1441" 
d="M276 1681h308l237 -385h-137zM1157 272q-3 -118 90 -118q44 0 80.5 25.5t50.5 50.5l15 26l49 -182q-3 -4 -9.5 -11t-29.5 -25t-51 -31.5t-75.5 -24.5t-100.5 -11q-108 0 -181 63t-73 202v194q-3 -10 -10 -26.5t-30.5 -64t-50.5 -91t-71.5 -96.5t-92.5 -91t-114 -64
t-135 -26q-124 0 -199.5 71t-75.5 179q0 61 21.5 121t77.5 125t141.5 118t224 96.5t314.5 63.5q-2 1 0.5 13.5t-2.5 34t-11 46.5t-24.5 50.5t-43 46.5t-67 34t-96.5 13t-101 -12.5t-79 -33t-58 -45t-41 -48.5t-25.5 -44.5t-13.5 -33.5l-4 -12l-254 73q2 7 7 19t25.5 47.5
t47 67t73.5 70.5t102.5 67.5t137.5 47.5t175 19q124 0 221.5 -32t158 -88.5t91 -131.5t28.5 -163zM403 272q0 -58 28.5 -88t80.5 -30q62 0 126 38.5t113.5 95.5t89.5 120t61 116.5t20 79.5v72q-131 -33 -229 -77.5t-151.5 -86t-86.5 -89t-42.5 -82t-9.5 -69.5z" />
    <glyph glyph-name="aacute" unicode="&#xe1;" horiz-adv-x="1441" 
d="M788 1681h308l-408 -385h-137zM1157 272q-3 -118 90 -118q44 0 80.5 25.5t50.5 50.5l15 26l49 -182q-3 -4 -9.5 -11t-29.5 -25t-51 -31.5t-75.5 -24.5t-100.5 -11q-108 0 -181 63t-73 202v194q-3 -10 -10 -26.5t-30.5 -64t-50.5 -91t-71.5 -96.5t-92.5 -91t-114 -64
t-135 -26q-124 0 -199.5 71t-75.5 179q0 61 21.5 121t77.5 125t141.5 118t224 96.5t314.5 63.5q-2 1 0.5 13.5t-2.5 34t-11 46.5t-24.5 50.5t-43 46.5t-67 34t-96.5 13t-101 -12.5t-79 -33t-58 -45t-41 -48.5t-25.5 -44.5t-13.5 -33.5l-4 -12l-254 73q2 7 7 19t25.5 47.5
t47 67t73.5 70.5t102.5 67.5t137.5 47.5t175 19q124 0 221.5 -32t158 -88.5t91 -131.5t28.5 -163zM403 272q0 -58 28.5 -88t80.5 -30q62 0 126 38.5t113.5 95.5t89.5 120t61 116.5t20 79.5v72q-131 -33 -229 -77.5t-151.5 -86t-86.5 -89t-42.5 -82t-9.5 -69.5z" />
    <glyph glyph-name="acircumflex" unicode="&#xe2;" horiz-adv-x="1441" 
d="M596 1681h184l361 -385h-137l-316 217l-315 -217h-137zM1157 272q-3 -118 90 -118q44 0 80.5 25.5t50.5 50.5l15 26l49 -182q-3 -4 -9.5 -11t-29.5 -25t-51 -31.5t-75.5 -24.5t-100.5 -11q-108 0 -181 63t-73 202v194q-3 -10 -10 -26.5t-30.5 -64t-50.5 -91t-71.5 -96.5
t-92.5 -91t-114 -64t-135 -26q-124 0 -199.5 71t-75.5 179q0 61 21.5 121t77.5 125t141.5 118t224 96.5t314.5 63.5q-2 1 0.5 13.5t-2.5 34t-11 46.5t-24.5 50.5t-43 46.5t-67 34t-96.5 13t-101 -12.5t-79 -33t-58 -45t-41 -48.5t-25.5 -44.5t-13.5 -33.5l-4 -12l-254 73
q2 7 7 19t25.5 47.5t47 67t73.5 70.5t102.5 67.5t137.5 47.5t175 19q124 0 221.5 -32t158 -88.5t91 -131.5t28.5 -163zM403 272q0 -58 28.5 -88t80.5 -30q62 0 126 38.5t113.5 95.5t89.5 120t61 116.5t20 79.5v72q-131 -33 -229 -77.5t-151.5 -86t-86.5 -89t-42.5 -82
t-9.5 -69.5z" />
    <glyph glyph-name="atilde" unicode="&#xe3;" horiz-adv-x="1441" 
d="M854 1505q29 0 52.5 12t37 28.5t23 33.5t13.5 29l3 12l82 -74q-2 -8 -6 -21t-21.5 -47t-39.5 -60t-62 -47t-88 -21q-53 0 -100 18t-75.5 39t-68 39t-80.5 18q-27 0 -50.5 -11.5t-37 -28.5t-23 -34t-13.5 -28l-3 -12l-82 73q2 8 6 21.5t21.5 47.5t39.5 59.5t62 47t88 21.5
q52 0 99 -18t76 -39.5t68.5 -39.5t78.5 -18zM1157 272q-3 -118 90 -118q44 0 80.5 25.5t50.5 50.5l15 26l49 -182q-3 -4 -9.5 -11t-29.5 -25t-51 -31.5t-75.5 -24.5t-100.5 -11q-108 0 -181 63t-73 202v194q-3 -10 -10 -26.5t-30.5 -64t-50.5 -91t-71.5 -96.5t-92.5 -91
t-114 -64t-135 -26q-124 0 -199.5 71t-75.5 179q0 61 21.5 121t77.5 125t141.5 118t224 96.5t314.5 63.5q-2 1 0.5 13.5t-2.5 34t-11 46.5t-24.5 50.5t-43 46.5t-67 34t-96.5 13t-101 -12.5t-79 -33t-58 -45t-41 -48.5t-25.5 -44.5t-13.5 -33.5l-4 -12l-254 73q2 7 7 19
t25.5 47.5t47 67t73.5 70.5t102.5 67.5t137.5 47.5t175 19q124 0 221.5 -32t158 -88.5t91 -131.5t28.5 -163zM403 272q0 -58 28.5 -88t80.5 -30q62 0 126 38.5t113.5 95.5t89.5 120t61 116.5t20 79.5v72q-131 -33 -229 -77.5t-151.5 -86t-86.5 -89t-42.5 -82t-9.5 -69.5z
" />
    <glyph glyph-name="adieresis" unicode="&#xe4;" horiz-adv-x="1441" 
d="M360 1395v196h246v-196h-246zM770 1395v196h246v-196h-246zM1157 272q-3 -118 90 -118q44 0 80.5 25.5t50.5 50.5l15 26l49 -182q-3 -4 -9.5 -11t-29.5 -25t-51 -31.5t-75.5 -24.5t-100.5 -11q-108 0 -181 63t-73 202v194q-3 -10 -10 -26.5t-30.5 -64t-50.5 -91
t-71.5 -96.5t-92.5 -91t-114 -64t-135 -26q-124 0 -199.5 71t-75.5 179q0 61 21.5 121t77.5 125t141.5 118t224 96.5t314.5 63.5q-2 1 0.5 13.5t-2.5 34t-11 46.5t-24.5 50.5t-43 46.5t-67 34t-96.5 13t-101 -12.5t-79 -33t-58 -45t-41 -48.5t-25.5 -44.5t-13.5 -33.5
l-4 -12l-254 73q2 7 7 19t25.5 47.5t47 67t73.5 70.5t102.5 67.5t137.5 47.5t175 19q124 0 221.5 -32t158 -88.5t91 -131.5t28.5 -163zM403 272q0 -58 28.5 -88t80.5 -30q62 0 126 38.5t113.5 95.5t89.5 120t61 116.5t20 79.5v72q-131 -33 -229 -77.5t-151.5 -86t-86.5 -89
t-42.5 -82t-9.5 -69.5z" />
    <glyph glyph-name="aring" unicode="&#xe5;" horiz-adv-x="1441" 
d="M465 1493q0 93 65.5 160t157.5 67q97 0 162 -64.5t65 -162.5q0 -91 -67.5 -157t-159.5 -66q-91 0 -157 66t-66 157zM590 1495q0 -43 28.5 -71.5t71.5 -28.5q42 0 71.5 30t29.5 70q0 39 -29.5 69.5t-71.5 30.5q-43 0 -71.5 -28.5t-28.5 -71.5zM1157 272q-3 -118 90 -118
q44 0 80.5 25.5t50.5 50.5l15 26l49 -182q-3 -4 -9.5 -11t-29.5 -25t-51 -31.5t-75.5 -24.5t-100.5 -11q-108 0 -181 63t-73 202v194q-3 -10 -10 -26.5t-30.5 -64t-50.5 -91t-71.5 -96.5t-92.5 -91t-114 -64t-135 -26q-124 0 -199.5 71t-75.5 179q0 61 21.5 121t77.5 125
t141.5 118t224 96.5t314.5 63.5q-2 1 0.5 13.5t-2.5 34t-11 46.5t-24.5 50.5t-43 46.5t-67 34t-96.5 13t-101 -12.5t-79 -33t-58 -45t-41 -48.5t-25.5 -44.5t-13.5 -33.5l-4 -12l-254 73q2 7 7 19t25.5 47.5t47 67t73.5 70.5t102.5 67.5t137.5 47.5t175 19q124 0 221.5 -32
t158 -88.5t91 -131.5t28.5 -163zM403 272q0 -58 28.5 -88t80.5 -30q62 0 126 38.5t113.5 95.5t89.5 120t61 116.5t20 79.5v72q-131 -33 -229 -77.5t-151.5 -86t-86.5 -89t-42.5 -82t-9.5 -69.5z" />
    <glyph glyph-name="ae" unicode="&#xe6;" horiz-adv-x="2205" 
d="M1518 154q63 0 114 16.5t82.5 43t55 58t34 63.5t17 58.5t7.5 42.5l1 17l254 -74q-2 -9 -5.5 -23.5t-21 -57t-41 -81t-69.5 -85.5t-102.5 -81t-143.5 -57t-189 -23q-104 0 -194 29t-164.5 87.5t-125 155t-66.5 222.5q-4 -10 -11.5 -28t-33.5 -69.5t-55.5 -98t-77.5 -103.5
t-100 -98t-122 -69t-143 -28q-124 0 -199.5 71t-75.5 179q0 61 21.5 121t77.5 125t141.5 118t224 96.5t314.5 63.5q-2 1 0.5 13.5t-2.5 34t-11 46.5t-24.5 50.5t-43 46.5t-67 34t-96.5 13t-101 -12.5t-79 -33t-58 -45t-41 -48.5t-25.5 -44.5t-13.5 -33.5l-4 -12l-254 73
q2 7 7 19t25.5 47.5t47 67t73.5 70.5t102.5 67.5t137.5 47.5t175 19q139 0 246 -51t165 -131q72 82 183 132t247 50q126 0 224 -33.5t154 -87t94 -118t51 -129t18.5 -118t2.5 -87.5l-3 -33l-868 21v-11q0 -190 83.5 -302.5t250.5 -112.5zM1792 692q0 6 -0.5 16.5t-5.5 40.5
t-15 57.5t-32 61.5t-52 58t-79.5 40.5t-110.5 16.5q-275 0 -309 -319zM403 272q0 -58 28.5 -88t80.5 -30q62 0 126 38.5t113.5 95.5t89.5 120t61 116.5t20 79.5v72q-131 -33 -229 -77.5t-151.5 -86t-86.5 -89t-42.5 -82t-9.5 -69.5z" />
    <glyph glyph-name="ccedilla" unicode="&#xe7;" horiz-adv-x="1488" 
d="M1112 453l254 -74q-2 -9 -5.5 -23.5t-21.5 -57t-43.5 -81t-74 -85.5t-108.5 -81t-153 -57t-202 -23l-37 -104q40 35 110 35q72 0 117 -44t45 -126q0 -100 -77 -158.5t-193 -58.5q-45 0 -87 10t-69.5 24t-48 28t-30.5 24l-9 10l37 139q3 -5 8 -13t24 -28t40 -35.5t55 -28
t70 -12.5q63 0 100 28t37 77q0 42 -23.5 66t-62.5 24q-15 0 -28.5 -4.5t-22.5 -11t-16 -13.5t-10 -11l-3 -5l-88 6l66 188q-111 13 -208 59t-171 119t-117 180t-43 234t42.5 236.5t121 189t196 125t260.5 45.5q134 0 238.5 -34.5t167.5 -87t105 -124.5t59 -138.5t20 -137.5
l-254 -74q5 63 -2.5 121t-31.5 112t-63 94t-100 63.5t-139 23.5q-171 0 -264.5 -113.5t-93.5 -300.5q0 -195 110.5 -305t288.5 -110q67 0 121 16.5t87 43t57.5 58t36 63.5t18 58.5t7.5 42.5z" />
    <glyph glyph-name="egrave" unicode="&#xe8;" horiz-adv-x="1488" 
d="M348 1681h307l238 -385h-137zM1366 379q-2 -9 -5.5 -23.5t-21.5 -57t-43 -81t-74 -85.5t-109.5 -81t-154.5 -57t-204 -23q-126 0 -239 40t-201 114t-139.5 189t-51.5 255q0 128 42.5 237t122 188.5t199.5 125t267 45.5q103 0 188 -21.5t143 -57.5t103.5 -83t71 -99
t43.5 -104t24 -99t8.5 -83t0.5 -58l-1 -21l-950 20q3 -190 113.5 -297.5t285.5 -107.5q67 0 121 16.5t87.5 43t58 58t36 63.5t18 58.5t7.5 42.5v17zM1075 694q0 6 -1.5 16.5t-9 40.5t-20 57t-38.5 60.5t-59.5 57.5t-87.5 40.5t-120 16.5q-139 0 -228 -80t-116 -219z" />
    <glyph glyph-name="eacute" unicode="&#xe9;" horiz-adv-x="1488" 
d="M860 1681h307l-407 -385h-137zM1366 379q-2 -9 -5.5 -23.5t-21.5 -57t-43 -81t-74 -85.5t-109.5 -81t-154.5 -57t-204 -23q-126 0 -239 40t-201 114t-139.5 189t-51.5 255q0 128 42.5 237t122 188.5t199.5 125t267 45.5q103 0 188 -21.5t143 -57.5t103.5 -83t71 -99
t43.5 -104t24 -99t8.5 -83t0.5 -58l-1 -21l-950 20q3 -190 113.5 -297.5t285.5 -107.5q67 0 121 16.5t87.5 43t58 58t36 63.5t18 58.5t7.5 42.5v17zM1075 694q0 6 -1.5 16.5t-9 40.5t-20 57t-38.5 60.5t-59.5 57.5t-87.5 40.5t-120 16.5q-139 0 -228 -80t-116 -219z" />
    <glyph glyph-name="ecircumflex" unicode="&#xea;" horiz-adv-x="1488" 
d="M668 1681h184l360 -385h-137l-315 217l-316 -217h-137zM1366 379q-2 -9 -5.5 -23.5t-21.5 -57t-43 -81t-74 -85.5t-109.5 -81t-154.5 -57t-204 -23q-126 0 -239 40t-201 114t-139.5 189t-51.5 255q0 128 42.5 237t122 188.5t199.5 125t267 45.5q103 0 188 -21.5
t143 -57.5t103.5 -83t71 -99t43.5 -104t24 -99t8.5 -83t0.5 -58l-1 -21l-950 20q3 -190 113.5 -297.5t285.5 -107.5q67 0 121 16.5t87.5 43t58 58t36 63.5t18 58.5t7.5 42.5v17zM1075 694q0 6 -1.5 16.5t-9 40.5t-20 57t-38.5 60.5t-59.5 57.5t-87.5 40.5t-120 16.5
q-139 0 -228 -80t-116 -219z" />
    <glyph glyph-name="edieresis" unicode="&#xeb;" horiz-adv-x="1488" 
d="M432 1395v196h246v-196h-246zM842 1395v196h245v-196h-245zM1366 379q-2 -9 -5.5 -23.5t-21.5 -57t-43 -81t-74 -85.5t-109.5 -81t-154.5 -57t-204 -23q-126 0 -239 40t-201 114t-139.5 189t-51.5 255q0 128 42.5 237t122 188.5t199.5 125t267 45.5q103 0 188 -21.5
t143 -57.5t103.5 -83t71 -99t43.5 -104t24 -99t8.5 -83t0.5 -58l-1 -21l-950 20q3 -190 113.5 -297.5t285.5 -107.5q67 0 121 16.5t87.5 43t58 58t36 63.5t18 58.5t7.5 42.5v17zM1075 694q0 6 -1.5 16.5t-9 40.5t-20 57t-38.5 60.5t-59.5 57.5t-87.5 40.5t-120 16.5
q-139 0 -228 -80t-116 -219z" />
    <glyph glyph-name="igrave" unicode="&#xec;" horiz-adv-x="614" 
d="M-117 1681h307l238 -385h-137zM184 0v1137h246v-1137h-246z" />
    <glyph glyph-name="iacute" unicode="&#xed;" horiz-adv-x="614" 
d="M446 1681h308l-408 -385h-137zM184 0v1137h246v-1137h-246z" />
    <glyph glyph-name="icircumflex" unicode="&#xee;" horiz-adv-x="614" 
d="M215 1681h184l361 -385h-137l-316 217l-315 -217h-137zM184 0v1137h246v-1137h-246z" />
    <glyph glyph-name="idieresis" unicode="&#xef;" horiz-adv-x="614" 
d="M-20 1395v196h245v-196h-245zM389 1395v196h246v-196h-246zM184 0v1137h246v-1137h-246z" />
    <glyph glyph-name="ntilde" unicode="&#xf1;" horiz-adv-x="1531" 
d="M930 1505q29 0 52.5 12t37 28.5t23 33.5t13.5 29l3 12l82 -74q-2 -8 -6 -21t-21.5 -47t-39.5 -60t-62 -47t-88 -21q-53 0 -100 18t-75.5 39t-68 39t-80.5 18q-27 0 -50.5 -11.5t-37 -28.5t-23 -34t-13.5 -28l-3 -12l-82 73q2 8 6 21.5t21.5 47.5t39.5 59.5t62 47t88 21.5
q52 0 99 -18t76 -39.5t68.5 -39.5t78.5 -18zM1102 0v700q0 141 -83 212t-239 71q-64 0 -116.5 -13.5t-88 -35t-63 -50.5t-42.5 -57.5t-24.5 -59t-12.5 -52t-3 -39.5v-676h-246v1137h119l105 -338q1 8 2.5 21t13 51t29 72.5t53.5 77t82.5 72.5t119.5 51t162 21
q478 0 478 -460v-705h-246z" />
    <glyph glyph-name="ograve" unicode="&#xf2;" horiz-adv-x="1536" 
d="M356 1681h308l237 -385h-137zM123 569q0 125 44.5 234t125.5 189.5t203.5 126.5t271.5 46t271.5 -46t203.5 -126.5t125.5 -189.5t44.5 -234q0 -126 -44 -235t-125.5 -190t-204 -127t-271.5 -46t-271.5 46t-204 127t-125.5 190t-44 235zM385 569q0 -187 103 -301t280 -114
q174 0 278.5 114.5t104.5 300.5t-104.5 300t-278.5 114q-177 0 -280 -113.5t-103 -300.5z" />
    <glyph glyph-name="oacute" unicode="&#xf3;" horiz-adv-x="1536" 
d="M868 1681h308l-408 -385h-137zM123 569q0 125 44.5 234t125.5 189.5t203.5 126.5t271.5 46t271.5 -46t203.5 -126.5t125.5 -189.5t44.5 -234q0 -126 -44 -235t-125.5 -190t-204 -127t-271.5 -46t-271.5 46t-204 127t-125.5 190t-44 235zM385 569q0 -187 103 -301
t280 -114q174 0 278.5 114.5t104.5 300.5t-104.5 300t-278.5 114q-177 0 -280 -113.5t-103 -300.5z" />
    <glyph glyph-name="ocircumflex" unicode="&#xf4;" horiz-adv-x="1536" 
d="M676 1681h184l361 -385h-138l-315 217l-315 -217h-138zM123 569q0 125 44.5 234t125.5 189.5t203.5 126.5t271.5 46t271.5 -46t203.5 -126.5t125.5 -189.5t44.5 -234q0 -126 -44 -235t-125.5 -190t-204 -127t-271.5 -46t-271.5 46t-204 127t-125.5 190t-44 235zM385 569
q0 -187 103 -301t280 -114q174 0 278.5 114.5t104.5 300.5t-104.5 300t-278.5 114q-177 0 -280 -113.5t-103 -300.5z" />
    <glyph glyph-name="odieresis" unicode="&#xf6;" horiz-adv-x="1536" 
d="M440 1395v196h246v-196h-246zM850 1395v196h246v-196h-246zM123 569q0 125 44.5 234t125.5 189.5t203.5 126.5t271.5 46t271.5 -46t203.5 -126.5t125.5 -189.5t44.5 -234q0 -126 -44 -235t-125.5 -190t-204 -127t-271.5 -46t-271.5 46t-204 127t-125.5 190t-44 235z
M385 569q0 -187 103 -301t280 -114q174 0 278.5 114.5t104.5 300.5t-104.5 300t-278.5 114q-177 0 -280 -113.5t-103 -300.5z" />
    <glyph glyph-name="divide" unicode="&#xf7;" horiz-adv-x="1331" 
d="M573 1071h185v-229h-185v229zM1290 586v-103h-1249v103h1249zM573 229h185v-229h-185v229z" />
    <glyph glyph-name="oslash" unicode="&#xf8;" horiz-adv-x="1536" 
d="M123 569q0 125 44.5 234t125.5 189.5t203.5 126.5t271.5 46q65 0 137 -10l90 272l105 -32l-88 -267q190 -61 295.5 -211t105.5 -348q0 -126 -44 -235t-125.5 -190t-204 -127t-271.5 -46q-56 0 -139 11l-90 -273l-101 31l88 266q-191 62 -297 213t-106 350zM385 569
q0 -131 53 -228.5t150 -147.5l258 784q-38 6 -78 6q-177 0 -280 -113.5t-103 -300.5zM1151 569q0 130 -53.5 228t-149.5 145l-260 -782q40 -6 80 -6q174 0 278.5 114.5t104.5 300.5z" />
    <glyph glyph-name="ugrave" unicode="&#xf9;" horiz-adv-x="1531" 
d="M375 1681h307l238 -385h-138zM430 1137v-701q0 -141 83 -211.5t239 -70.5q64 0 116.5 13.5t88 35t63 50.5t42.5 57.5t24.5 59t12.5 52t3 39.5v676h246v-1137h-119l-105 338q-1 -8 -2.5 -21t-13 -51t-29 -73t-53.5 -77t-82.5 -72.5t-119.5 -51.5t-162 -21q-478 0 -478 461
v705h246z" />
    <glyph glyph-name="uacute" unicode="&#xfa;" horiz-adv-x="1531" 
d="M887 1681h307l-408 -385h-137zM430 1137v-701q0 -141 83 -211.5t239 -70.5q64 0 116.5 13.5t88 35t63 50.5t42.5 57.5t24.5 59t12.5 52t3 39.5v676h246v-1137h-119l-105 338q-1 -8 -2.5 -21t-13 -51t-29 -73t-53.5 -77t-82.5 -72.5t-119.5 -51.5t-162 -21
q-478 0 -478 461v705h246z" />
    <glyph glyph-name="ucircumflex" unicode="&#xfb;" horiz-adv-x="1531" 
d="M694 1681h185l360 -385h-137l-316 217l-315 -217h-137zM430 1137v-701q0 -141 83 -211.5t239 -70.5q64 0 116.5 13.5t88 35t63 50.5t42.5 57.5t24.5 59t12.5 52t3 39.5v676h246v-1137h-119l-105 338q-1 -8 -2.5 -21t-13 -51t-29 -73t-53.5 -77t-82.5 -72.5t-119.5 -51.5
t-162 -21q-478 0 -478 461v705h246z" />
    <glyph glyph-name="udieresis" unicode="&#xfc;" horiz-adv-x="1531" 
d="M459 1395v196h246v-196h-246zM868 1395v196h246v-196h-246zM430 1137v-701q0 -141 83 -211.5t239 -70.5q64 0 116.5 13.5t88 35t63 50.5t42.5 57.5t24.5 59t12.5 52t3 39.5v676h246v-1137h-119l-105 338q-1 -8 -2.5 -21t-13 -51t-29 -73t-53.5 -77t-82.5 -72.5
t-119.5 -51.5t-162 -21q-478 0 -478 461v705h246z" />
    <glyph glyph-name="yacute" unicode="&#xfd;" horiz-adv-x="1302" 
d="M725 1681h307l-407 -385h-138zM504 -2l33 74l-517 1065h283l359 -805l342 805h278l-551 -1137q-124 -254 -228.5 -369.5t-238.5 -115.5q-43 0 -81.5 9.5t-63.5 23.5t-44 28t-27 24l-9 9l29 182q2 -5 6 -11.5t17 -21t28.5 -26t40.5 -20.5t53 -9q74 0 153.5 81.5
t137.5 213.5z" />
    <glyph glyph-name="ydieresis" unicode="&#xff;" horiz-adv-x="1302" 
d="M297 1395v196h246v-196h-246zM707 1395v196h245v-196h-245zM504 -2l33 74l-517 1065h283l359 -805l342 805h278l-551 -1137q-124 -254 -228.5 -369.5t-238.5 -115.5q-43 0 -81.5 9.5t-63.5 23.5t-44 28t-27 24l-9 9l29 182q2 -5 6 -11.5t17 -21t28.5 -26t40.5 -20.5
t53 -9q74 0 153.5 81.5t137.5 213.5z" />
    <glyph glyph-name="Aogonek" unicode="&#x104;" horiz-adv-x="2029" 
d="M1948 -236l41 -280q-73 -57 -161 -73.5t-161.5 4.5t-123.5 85t-50 158q0 126 74 214t200 128h-98l-227 506h-891l-227 -506h-283l737 1591h439l737 -1591q-92 -38 -150.5 -69.5t-88 -61t-40 -54.5t-10.5 -59q0 -41 20.5 -67.5t54 -32.5t71 2t75 36t62.5 70zM631 680h733
l-330 737h-71z" />
    <glyph glyph-name="aogonek" unicode="&#x105;" horiz-adv-x="1497" 
d="M1456 -236l41 -280q-73 -57 -161 -73.5t-161.5 4.5t-123.5 85t-50 158q0 100 45 174.5t128 138.5q-50 0 -92.5 13.5t-79.5 43t-58.5 83t-21.5 125.5v192q-8 -21 -13 -33t-32 -65t-52.5 -91.5t-71 -92.5t-92 -89t-111 -60.5t-132.5 -25.5q-124 0 -199.5 71t-75.5 179
q0 61 21.5 121t77.5 125t141.5 118t224 96.5t314.5 63.5q-2 1 0.5 13.5t-2.5 34t-11 46.5t-24.5 50.5t-43 46.5t-67 34t-96.5 13t-101 -12.5t-79 -33t-58 -45t-41 -48.5t-25.5 -44.5t-13.5 -33.5l-4 -12l-254 73q2 7 7 19t25.5 47.5t47 67t73.5 70.5t102.5 67.5t137.5 47.5
t175 19q124 0 221.5 -32t158 -88.5t91 -131.5t28.5 -163l-12 -478q-3 -118 90 -118q44 0 80.5 25.5t50.5 50.5l15 26l49 -182l-4 -6q-1 0 -2 -1t-2 -1q-35 -35 -62 -48q-126 -97 -162 -148.5t-36 -113.5q0 -41 20.5 -67.5t53.5 -32.5t70.5 2t75 36t62.5 70zM403 272
q0 -58 28.5 -88t80.5 -30q62 0 126 38.5t113.5 95.5t89.5 120t61 116.5t20 79.5v72q-131 -33 -229 -77.5t-151.5 -86t-86.5 -89t-42.5 -82t-9.5 -69.5z" />
    <glyph glyph-name="Cacute" unicode="&#x106;" horiz-adv-x="2015" 
d="M1491 2189l-408 -385h-137l238 385h307zM1618 680l274 -80q-1 -8 -3 -22t-14 -57t-29 -84.5t-51 -98.5t-76.5 -105.5t-110 -98t-147.5 -84.5t-191.5 -57t-239.5 -22q-208 0 -379.5 62t-286.5 171.5t-178 261t-63 329.5q0 180 60 331t171 261t279.5 171.5t376.5 61.5
q158 0 289.5 -36.5t216 -94.5t149.5 -128.5t98.5 -140.5t54 -128t26.5 -94l5 -37l-274 -82q0 7 -1 19t-7.5 48.5t-16.5 72.5t-31 84t-48.5 90t-71.5 84.5t-97.5 72t-129 48.5t-162.5 19q-188 0 -327 -82.5t-209.5 -222.5t-70.5 -317q0 -175 75.5 -315.5t219.5 -223
t332 -82.5q117 0 213 28t155.5 72.5t104 98.5t65.5 108t33.5 98.5t14.5 72.5z" />
    <glyph glyph-name="cacute" unicode="&#x107;" horiz-adv-x="1488" 
d="M1198 1681l-407 -385h-138l238 385h307zM1112 453l254 -74q-2 -9 -5.5 -23.5t-22 -57t-43.5 -81t-74 -85.5t-109.5 -81t-154 -57t-203.5 -23q-126 0 -239 40t-201 114t-139.5 189t-51.5 255q0 127 42.5 236.5t121 189t196 125t260.5 45.5q134 0 238.5 -34.5t167.5 -87
t105 -124.5t59 -138.5t20 -137.5l-254 -74q5 63 -2.5 121t-31.5 112t-63 94t-100 63.5t-139 23.5q-171 0 -264.5 -113.5t-93.5 -300.5q0 -195 110.5 -305t288.5 -110q67 0 121 16.5t87 43t57.5 58t36 63.5t18 58.5t7.5 42.5z" />
    <glyph glyph-name="Eogonek" unicode="&#x118;" horiz-adv-x="1601" 
d="M1438 -236l41 -280q-73 -57 -161 -73.5t-161.5 4.5t-123.5 85t-50 158q0 126 74 214t200 128h-1073v1591h1200v-174h-933v-532h876v-174h-876v-537h993v-174q-92 -38 -150.5 -69.5t-88 -61t-40 -54.5t-10.5 -59q0 -41 20.5 -67.5t54 -32.5t71 2t75 36t62.5 70z" />
    <glyph glyph-name="eogonek" unicode="&#x119;" horiz-adv-x="1488" 
d="M1294 217q-167 -242 -215.5 -330.5t-48.5 -130.5q0 -41 20.5 -67.5t54 -32.5t71 2t75 36t62.5 70l41 -280q-73 -57 -161 -74t-162 4.5t-123.5 86.5t-49.5 161q0 50 12.5 94t45 93t58 81t81.5 95q-131 -54 -301 -54q-126 0 -239 40t-201 114t-139.5 189t-51.5 255
q0 128 42.5 237t122 188.5t199.5 125t267 45.5q103 0 188 -21.5t143 -57.5t103.5 -83t71 -99t43.5 -104t24 -99t8.5 -83t0.5 -58l-1 -21l-950 20q3 -191 113 -298t286 -107q67 0 121 16.5t87.5 43t58 58t36 63.5t18 58.5t7.5 42.5v17l254 -74q-13 -76 -72 -162zM1075 694
q0 6 -1.5 16.5t-9 40.5t-20 57t-38.5 60.5t-59.5 57.5t-87.5 40.5t-120 16.5q-141 0 -229 -80.5t-115 -218.5z" />
    <glyph glyph-name="dotlessi" unicode="&#x131;" horiz-adv-x="614" 
d="M184 0v1137h246v-1137h-246z" />
    <glyph glyph-name="Lslash" unicode="&#x141;" horiz-adv-x="1488" 
d="M578 174h911v-174h-1178v492l-147 -113l-82 113l229 188v911h267v-692l559 459l120 -150l-679 -516v-518z" />
    <glyph glyph-name="lslash" unicode="&#x142;" horiz-adv-x="946" 
d="M885 993l-332 -241v-752h-246v573l-145 -106l-80 108l225 183v811q58 0 119.5 5.5t93.5 11.5l33 5v-635l231 187z" />
    <glyph glyph-name="Nacute" unicode="&#x143;" horiz-adv-x="1906" 
d="M1327 2189l-407 -385h-138l238 385h307zM1722 0h-327l-944 1315v-1315h-267v1591h328l944 -1315v1315h266v-1591z" />
    <glyph glyph-name="nacute" unicode="&#x144;" horiz-adv-x="1531" 
d="M1237 1681l-408 -385h-137l238 385h307zM1102 0v700q0 141 -83 212t-239 71q-64 0 -116.5 -13.5t-88 -35t-63 -50.5t-42.5 -57.5t-24.5 -59t-12.5 -52t-3 -39.5v-676h-246v1137h119l105 -338q1 8 2.5 21t13 51t29 72.5t53.5 77t82.5 72.5t119.5 51t162 21q478 0 478 -460
v-705h-246z" />
    <glyph glyph-name="OE" unicode="&#x152;" horiz-adv-x="2392" 
d="M2310 0h-1093q-122 -29 -248 -29q-193 0 -352.5 62t-267.5 171t-167 261t-59 330q0 179 59 331t167 261.5t267.5 171t352.5 61.5q126 0 248 -29h1034v-174h-695q111 -97 177 -233.5t79 -298.5h381v-174h-381q-28 -338 -256 -537h754v-174zM1235 711v174h297
q-27 235 -179 383.5t-384 148.5q-168 0 -298 -82t-199 -223t-69 -317q0 -175 69 -315.5t199 -223t298 -82.5q233 0 385.5 150t177.5 387h-297z" />
    <glyph glyph-name="oe" unicode="&#x153;" horiz-adv-x="2435" 
d="M123 569q0 126 41 234t118.5 189t197 127t268.5 46q159 0 285 -59.5t204 -161.5q77 102 200.5 161.5t282.5 59.5q130 0 231.5 -33.5t159.5 -87t97.5 -118t53 -129t19.5 -118t3 -87.5l-3 -33l-909 21v-31q4 -188 106 -291.5t273 -103.5q67 0 120 16.5t84.5 43t54 58
t31.5 63.5t13.5 58.5t3.5 42.5v17l254 -74q-1 -9 -4 -23.5t-19 -57t-39.5 -81t-70 -85.5t-105.5 -81t-151.5 -57t-202.5 -23q-145 0 -271 59.5t-208 166.5q-77 -106 -204 -166t-289 -60q-149 0 -268.5 46t-197 127t-118.5 189.5t-41 235.5zM385 569q0 -189 94.5 -302
t268.5 -113q171 0 266.5 113.5t95.5 301.5v19q-5 180 -100 287.5t-262 107.5q-175 0 -269 -112.5t-94 -301.5zM1706 983q-144 0 -226 -85t-102 -234l643 28q0 6 -0.5 16.5t-6 40.5t-16 57.5t-33.5 61.5t-55.5 58t-85 40.5t-118.5 16.5z" />
    <glyph glyph-name="Sacute" unicode="&#x15a;" horiz-adv-x="1667" 
d="M1307 2189l-408 -385h-137l237 385h308zM713 975l405 -90q467 -105 467 -459q0 -145 -91 -249.5t-243 -155t-348 -50.5q-149 0 -275 27t-212.5 73t-151.5 103t-103 122.5t-57 125.5t-22 117l274 79q-1 -6 -1.5 -15.5t2 -40t8.5 -60t22.5 -69.5t41 -74t66.5 -69.5
t95.5 -60t132.5 -40t174 -15.5q188 0 300 69t112 171q0 38 -10 68t-32.5 54t-50 42t-72 34.5t-88 28.5t-108.5 27l-387 90q-200 46 -302.5 152.5t-102.5 252.5q0 73 23.5 139.5t74 125t124.5 101t181.5 67t237.5 24.5q112 0 207.5 -16t163 -43.5t123 -63.5t90 -75.5
t60.5 -78.5t38.5 -75t19.5 -63.5t9 -43.5l1 -16l-274 -74q1 14 0 37.5t-22 83t-62.5 105t-137 83t-229.5 37.5q-160 0 -256 -63.5t-96 -165.5q0 -86 69.5 -133.5t211.5 -79.5z" />
    <glyph glyph-name="sacute" unicode="&#x15b;" horiz-adv-x="1325" 
d="M1079 1681l-407 -385h-137l237 385h307zM1180 823l-254 -73q0 3 0.5 8t-1 21t-5 31.5t-13 36.5t-23 39t-37 36.5t-53.5 31.5t-74 21t-97 8q-119 0 -177.5 -40t-58.5 -105q0 -106 229 -146l279 -49q348 -62 348 -315q0 -107 -68 -189t-182.5 -125t-255.5 -43
q-96 0 -179.5 14t-144 37.5t-111 54t-84 64.5t-59.5 68t-40 64.5t-23 54t-12 37.5l-2 14l254 74q-1 -6 -1.5 -17t4.5 -42t16.5 -59t40.5 -62.5t70.5 -59.5t112 -42t160.5 -17q112 0 177 43t65 110q0 60 -54.5 101t-183.5 65l-249 45q-180 32 -264.5 114t-84.5 193
q0 105 65 183t173.5 117.5t243.5 39.5q106 0 194 -19t143.5 -49t98 -66.5t64 -73t34.5 -66.5t16 -49z" />
    <glyph glyph-name="Ydieresis" unicode="&#x178;" horiz-adv-x="1744" 
d="M545 1849v197h246v-197h-246zM954 1849v197h246v-197h-246zM739 772l-719 819h308l544 -620l545 620h307l-718 -819v-772h-267v772z" />
    <glyph glyph-name="Zacute" unicode="&#x179;" horiz-adv-x="1521" 
d="M1225 2189l-408 -385h-137l238 385h307zM1481 0h-1440v195l1102 1222h-1102v174h1440v-194l-1102 -1223h1102v-174z" />
    <glyph glyph-name="zacute" unicode="&#x17a;" horiz-adv-x="1249" 
d="M1092 1681l-408 -385h-137l237 385h308zM82 174l778 809h-778v154h1085v-174l-768 -809h768v-154h-1085v174z" />
    <glyph glyph-name="Zdotaccent" unicode="&#x17b;" horiz-adv-x="1521" 
d="M639 2046h246v-197h-246v197zM1481 0h-1440v195l1102 1222h-1102v174h1440v-194l-1102 -1223h1102v-174z" />
    <glyph glyph-name="zdotaccent" unicode="&#x17c;" horiz-adv-x="1249" 
d="M502 1591h246v-196h-246v196zM82 174l778 809h-778v154h1085v-174l-768 -809h768v-154h-1085v174z" />
    <glyph glyph-name="circumflex" unicode="&#x2c6;" horiz-adv-x="2465" 
d="M1139 1681h184l360 -385h-137l-315 217l-316 -217h-137z" />
    <glyph glyph-name="ring" unicode="&#x2da;" horiz-adv-x="2465" 
d="M1008 1493q0 93 65.5 160t157.5 67q97 0 162 -64.5t65 -162.5q0 -91 -67.5 -157t-159.5 -66q-91 0 -157 66t-66 157zM1133 1495q0 -43 28.5 -71.5t71.5 -28.5q42 0 71 30t29 70q0 39 -29 69.5t-71 30.5q-43 0 -71.5 -28.5t-28.5 -71.5z" />
    <glyph glyph-name="tilde" unicode="&#x2dc;" horiz-adv-x="2465" 
d="M1397 1505q29 0 52.5 12t37 28.5t23 33.5t12.5 29l4 12l82 -74q-2 -8 -6 -21t-21.5 -47t-39.5 -60t-62 -47t-88 -21q-53 0 -100 18t-75.5 39t-68 39t-80.5 18q-27 0 -50.5 -11.5t-37 -28.5t-23 -34t-12.5 -28l-4 -12l-82 73q2 8 6 21.5t21.5 47.5t39.5 59.5t62 47
t88 21.5q52 0 99 -18t76 -39.5t68.5 -39.5t78.5 -18z" />
    <glyph glyph-name="uni0344" unicode="&#x344;" horiz-adv-x="1122" 
d="M606 1681h307l-407 -385h-137zM39 1296v197h246v-197h-246zM838 1296v197h245v-197h-245z" />
    <glyph glyph-name="uni037E" unicode="&#x37e;" horiz-adv-x="634" 
d="M184 840v297h267v-297h-267zM451 297v-246q0 -71 -17 -139t-41 -115t-48 -84t-41 -55l-17 -18l-181 53q7 4 20 12.5t46.5 38t61.5 62.5t56.5 85.5t39.5 108.5h-146v297h267z" />
    <glyph glyph-name="tonos" unicode="&#x384;" horiz-adv-x="749" 
d="M340 1681h307l-407 -385h-138z" />
    <glyph glyph-name="dieresistonos" unicode="&#x385;" horiz-adv-x="1122" 
d="M606 1681h307l-407 -385h-137zM39 1296v197h246v-197h-246zM838 1296v197h245v-197h-245z" />
    <glyph glyph-name="Alphatonos" unicode="&#x386;" horiz-adv-x="1994" 
d="M1669 0l-227 506h-891l-227 -506h-283l737 1591h439l737 -1591h-285zM319 1591h308l-408 -385h-137zM963 1417l-332 -737h733l-330 737h-71z" />
    <glyph glyph-name="anoteleia" unicode="&#x387;" horiz-adv-x="634" 
d="M184 840v297h267v-297h-267z" />
    <glyph glyph-name="Epsilontonos" unicode="&#x388;" horiz-adv-x="1976" 
d="M635 0v1591h1200v-174h-934v-532h877v-174h-877v-537h993v-174h-1259zM238 1591h307l-408 -385h-137z" />
    <glyph glyph-name="Etatonos" unicode="&#x389;" horiz-adv-x="2355" 
d="M1905 0v711h-1004v-711h-266v1591h266v-706h1004v706h266v-1591h-266zM238 1591h307l-408 -385h-137z" />
    <glyph glyph-name="Iotatonos" unicode="&#x38a;" horiz-adv-x="1081" 
d="M631 1591h266v-1591h-266v1591zM238 1591h307l-408 -385h-137z" />
    <glyph glyph-name="Omicrontonos" unicode="&#x38c;" horiz-adv-x="2267" 
d="M2144 795q0 -178 -66.5 -330t-186 -261t-294.5 -171t-383 -62t-382.5 62t-293.5 171t-185 261t-66 330t66 330.5t185 261.5t293.5 171t382.5 62t383 -62t294.5 -171t186 -261.5t66.5 -330.5zM238 1591h307l-408 -385h-137zM1864 795q0 175 -81 316.5t-230 223.5t-339 82
q-142 0 -263 -48t-205 -131t-131.5 -197.5t-47.5 -245.5q0 -130 47.5 -244.5t131.5 -197.5t205 -131t263 -48t264 48t206.5 131t132 197.5t47.5 244.5z" />
    <glyph glyph-name="Upsilontonos" unicode="&#x38e;" horiz-adv-x="2338" 
d="M1333 772l-719 819h308l544 -620l545 620h307l-719 -819v-772h-266v772zM238 1591h307l-408 -385h-137z" />
    <glyph glyph-name="Omegatonos" unicode="&#x38f;" horiz-adv-x="2267" 
d="M246 174h547q-127 39 -225 109t-159 161t-91.5 195t-30.5 217q0 119 41.5 232t122.5 209t192 168.5t258.5 113.5t312.5 41t313 -41t259 -113.5t192.5 -168.5t123.5 -209t42 -232q0 -227 -149.5 -415.5t-405.5 -266.5h596v-174h-833v166q232 41 372 212.5t140 416.5
q0 175 -81 316.5t-230 223.5t-339 82q-142 0 -263 -48t-205 -131t-131.5 -197.5t-47.5 -245.5q0 -243 135 -413t363 -214v-168h-819v174zM238 1591h307l-408 -385h-137z" />
    <glyph glyph-name="iotadieresistonos" unicode="&#x390;" horiz-adv-x="614" 
d="M424 1681h307l-407 -385h-138zM-143 1296v197h245v-197h-245zM655 1296v197h246v-197h-246zM184 0v1137h246v-1137h-246z" />
    <glyph glyph-name="Alpha" unicode="&#x391;" horiz-adv-x="1994" 
d="M1669 0l-227 506h-891l-227 -506h-283l737 1591h439l737 -1591h-285zM963 1417l-332 -737h733l-330 737h-71z" />
    <glyph glyph-name="Beta" unicode="&#x392;" horiz-adv-x="1738" 
d="M1616 453q0 -228 -174.5 -340.5t-540.5 -112.5h-717v1591h676q715 0 715 -389q0 -63 -19 -116t-49 -88t-66.5 -62t-73 -41.5t-66.5 -24t-49 -12.5l-19 -2q8 0 22 -2t53.5 -11.5t75.5 -24.5t80.5 -46t76 -71.5t53.5 -105t22 -142.5zM451 903h409q78 0 140 7t118.5 25
t94 46.5t59.5 74t22 105.5t-22 105t-59.5 73.5t-94 46t-118.5 24.5t-140 7h-409v-514zM451 729v-555h450q78 0 140 7.5t118.5 26.5t94 49.5t59.5 80t22 115.5t-22 115t-59.5 79.5t-94 49t-118 25.5t-140.5 7h-450z" />
    <glyph glyph-name="Gamma" unicode="&#x393;" horiz-adv-x="1525" 
d="M184 0v1591h1200v-174h-933v-1417h-267z" />
    <glyph glyph-name="uni0394" unicode="&#x394;" horiz-adv-x="1994" 
d="M1217 1591l737 -1591h-1913l737 1591h439zM963 1417l-562 -1243h1190l-557 1243h-71z" />
    <glyph glyph-name="Epsilon" unicode="&#x395;" horiz-adv-x="1525" 
d="M184 0v1591h1200v-174h-933v-532h876v-174h-876v-537h993v-174h-1260z" />
    <glyph glyph-name="Zeta" unicode="&#x396;" horiz-adv-x="1521" 
d="M1481 174v-174h-1440v195l1143 1222h-1143v174h1440v-194l-1143 -1223h1143z" />
    <glyph glyph-name="Eta" unicode="&#x397;" horiz-adv-x="1904" 
d="M1454 0v711h-1003v-711h-267v1591h267v-706h1003v706h266v-1591h-266z" />
    <glyph glyph-name="Theta" unicode="&#x398;" horiz-adv-x="2103" 
d="M1980 795q0 -178 -66.5 -330t-185.5 -261t-294 -171t-383 -62t-382.5 62t-294 171t-185.5 261t-66 330t66 330.5t185.5 261.5t294 171t382.5 62t382.5 -62t294 -171t186 -261.5t66.5 -330.5zM1051 1417q-260 0 -435 -149t-206 -383h1284q-31 234 -207 383t-436 149z
M1051 174q263 0 439 150.5t204 386.5h-1284q28 -235 203.5 -386t437.5 -151z" />
    <glyph glyph-name="Iota" unicode="&#x399;" horiz-adv-x="634" 
d="M184 1591h267v-1591h-267v1591z" />
    <glyph glyph-name="Kappa" unicode="&#x39a;" horiz-adv-x="1765" 
d="M1417 0l-706 805l-260 -232v-573h-267v1591h267v-753l823 753h328l-717 -635l839 -956h-307z" />
    <glyph glyph-name="Lambda" unicode="&#x39b;" horiz-adv-x="1994" 
d="M963 1417l-639 -1417h-283l737 1591h439l737 -1591h-285l-635 1417h-71z" />
    <glyph glyph-name="Mu" unicode="&#x39c;" horiz-adv-x="2502" 
d="M1251 174l658 1417h409v-1591h-266v1315l-627 -1315h-348l-626 1315v-1315h-267v1591h410z" />
    <glyph glyph-name="Nu" unicode="&#x39d;" horiz-adv-x="1906" 
d="M1722 1591v-1591h-327l-944 1315v-1315h-267v1591h328l944 -1315v1315h266z" />
    <glyph glyph-name="Xi" unicode="&#x39e;" horiz-adv-x="1832" 
d="M1751 0h-1669v174h696v537h-579v174h579v532h-637v174h1551v-174h-648v-532h590v-174h-590v-537h707v-174z" />
    <glyph glyph-name="Omicron" unicode="&#x39f;" horiz-adv-x="2103" 
d="M1980 795q0 -178 -66.5 -330t-185.5 -261t-294 -171t-383 -62t-382.5 62t-294 171t-185.5 261t-66 330t66 330.5t185.5 261.5t294 171t382.5 62t382.5 -62t294 -171t186 -261.5t66.5 -330.5zM1700 795q0 131 -47.5 245.5t-131.5 197.5t-206 131t-264 48
q-189 0 -337.5 -82t-229.5 -223.5t-81 -316.5q0 -174 81 -315.5t229.5 -223.5t337.5 -82q142 0 264 48t206 131t131.5 197.5t47.5 244.5z" />
    <glyph glyph-name="Pi" unicode="&#x3a0;" horiz-adv-x="1863" 
d="M1352 0v1417h-840v-1417h-266v1417h-246v174h1864v-174h-246v-1417h-266z" />
    <glyph glyph-name="Rho" unicode="&#x3a1;" horiz-adv-x="1615" 
d="M184 1591h676q368 0 541.5 -105t173.5 -325q0 -221 -173.5 -326.5t-541.5 -105.5h-409v-729h-267v1591zM451 903h409q78 0 140 7t118.5 25t94 46.5t59.5 74t22 105.5t-22 105t-59.5 73.5t-94 46t-118.5 24.5t-140 7h-409v-514z" />
    <glyph glyph-name="Sigma" unicode="&#x3a3;" horiz-adv-x="1705" 
d="M1542 1591v-174h-1071l737 -547v-127l-727 -569h1102v-174h-1399v195l750 602l-750 565v229h1358z" />
    <glyph glyph-name="Tau" unicode="&#x3a4;" horiz-adv-x="1611" 
d="M0 1417v174h1612v-174h-676v-1417h-260v1417h-676z" />
    <glyph glyph-name="Upsilon" unicode="&#x3a5;" horiz-adv-x="1744" 
d="M739 772l-719 819h308l544 -620l545 620h307l-718 -819v-772h-267v772z" />
    <glyph glyph-name="Phi" unicode="&#x3a6;" horiz-adv-x="2185" 
d="M952 1591h267v-118q154 -9 285.5 -39t243 -85t189.5 -132.5t122 -184.5t44 -237q0 -129 -44 -236t-122 -184t-189 -132t-243 -85t-286 -39v-119h-267v119q-152 10 -282 41t-239.5 86t-186 132t-119.5 183t-43 234q0 129 43 235.5t119.5 183.5t186 132t239.5 86t282 41
v118zM1823 795q0 121 -47 215.5t-131 155.5t-190.5 96.5t-235.5 46.5v-1026q128 11 235 46.5t191 96t131 155t47 214.5zM362 795q0 -95 30.5 -175t83.5 -137t128 -99t161.5 -66.5t186.5 -34.5v1026q-126 -13 -230.5 -49t-186.5 -97t-127.5 -155t-45.5 -213z" />
    <glyph glyph-name="Chi" unicode="&#x3a7;" horiz-adv-x="1744" 
d="M20 0l699 797l-699 794h308l544 -620l545 620h307l-698 -794l698 -797h-307l-545 621l-544 -621h-308z" />
    <glyph glyph-name="Psi" unicode="&#x3a8;" horiz-adv-x="2390" 
d="M1059 1591h266v-1061q100 11 187.5 35.5t164 66.5t131 99t86 136t31.5 173v551h281v-551q0 -127 -44 -233t-123 -182.5t-190 -131.5t-241.5 -86t-282.5 -42v-365h-266v362q-159 8 -291.5 38t-241.5 85t-184.5 132.5t-116.5 184.5t-41 238v551h281v-551
q0 -121 45.5 -215.5t127.5 -155.5t187.5 -96.5t233.5 -46.5v1065z" />
    <glyph glyph-name="uni03A9" unicode="&#x3a9;" horiz-adv-x="2103" 
d="M82 174h547q-127 39 -225 109t-159 161t-91.5 195t-30.5 217q0 119 41.5 232t123 209t192.5 168.5t258.5 113.5t312.5 41q206 0 382.5 -63.5t295 -169.5t185 -244t66.5 -287q0 -227 -149.5 -415.5t-405.5 -266.5h596v-174h-833v166q232 41 372 212.5t140 416.5
q0 131 -47.5 245.5t-131.5 197.5t-206 131t-264 48q-189 0 -337.5 -82t-229.5 -223.5t-81 -316.5q0 -243 135 -413t363 -214v-168h-819v174z" />
    <glyph glyph-name="Iotadieresis" unicode="&#x3aa;" horiz-adv-x="634" 
d="M10 1849v197h246v-197h-246zM420 1849v197h246v-197h-246zM184 1591h267v-1591h-267v1591z" />
    <glyph glyph-name="Upsilondieresis" unicode="&#x3ab;" horiz-adv-x="1744" 
d="M545 1849v197h246v-197h-246zM954 1849v197h246v-197h-246zM739 772l-719 819h308l544 -620l545 620h307l-718 -819v-772h-267v772z" />
    <glyph glyph-name="alphatonos" unicode="&#x3ac;" horiz-adv-x="1673" 
d="M895 1681h307l-407 -385h-138zM1300 541q-29 -90 -37 -157t0 -102.5t29 -56.5t40.5 -26.5t43.5 -5.5q44 0 85.5 25.5t60.5 51.5l20 25l49 -221q-20 -38 -85.5 -70.5t-139.5 -32.5q-131 0 -199 112t-26 302q-49 -135 -133.5 -231t-178 -139.5t-190.5 -43.5
q-118 0 -216.5 47t-163.5 127t-100.5 185t-35.5 223q0 92 21.5 180t65 166.5t104.5 137.5t146.5 93.5t184.5 34.5q206 0 334.5 -160.5t126.5 -410.5q2 8 6 20l139 523h246zM381 561q0 -193 85 -298t226 -105q237 0 367 299q-13 268 -105.5 397t-238.5 129q-79 0 -144 -36.5
t-105.5 -96.5t-62.5 -134.5t-22 -154.5z" />
    <glyph glyph-name="epsilontonos" unicode="&#x3ad;" horiz-adv-x="1417" 
d="M797 1681h307l-408 -385h-137zM1040 453l254 -74q-2 -9 -5.5 -23.5t-22 -57t-43.5 -81t-74 -85.5t-109.5 -81t-154 -57t-203.5 -23q-141 0 -251 28.5t-175.5 76.5t-99 107.5t-33.5 125.5q0 121 108.5 197.5t311.5 89.5q-185 5 -286 66t-101 176q0 98 74.5 174t191 114.5
t250.5 38.5q96 0 178 -16.5t140.5 -44t105.5 -66t76.5 -79.5t49.5 -87t29 -86.5t11 -80.5l-254 -74q5 50 -2.5 98.5t-32 95t-62.5 81.5t-99.5 56t-139.5 21q-108 0 -189.5 -51.5t-81.5 -138.5q0 -54 59.5 -98t174.5 -44h219v-145h-219q-123 0 -190.5 -48t-67.5 -114
q0 -97 92.5 -143.5t243.5 -46.5q67 0 121 16.5t87 43t57.5 58t35.5 63.5t17.5 58.5t7.5 42.5z" />
    <glyph glyph-name="etatonos" unicode="&#x3ae;" horiz-adv-x="1531" 
d="M864 1681h307l-407 -385h-137zM1102 -457v1157q0 141 -83 212t-239 71q-64 0 -116.5 -13.5t-88 -35t-63 -50.5t-42.5 -57.5t-24.5 -59t-12.5 -52t-3 -39.5v-676h-246v1137h119l105 -338q1 8 2.5 21t13 51t29 72.5t53.5 77t82.5 72.5t119.5 51t162 21q478 0 478 -460
v-1162h-246z" />
    <glyph glyph-name="iotatonos" unicode="&#x3af;" horiz-adv-x="614" 
d="M436 1681h307l-407 -385h-137zM184 0v1137h246v-1137h-246z" />
    <glyph glyph-name="upsilondieresistonos" unicode="&#x3b0;" horiz-adv-x="1517" 
d="M809 1681h307l-407 -385h-138zM242 1296v197h245v-197h-245zM1040 1296v197h246v-197h-246zM1149 569q0 102 -12.5 207.5t-26.5 174t-41 186.5h260q34 -165 50 -288t16 -280q0 -169 -70.5 -303.5t-210 -214.5t-326.5 -80q-148 0 -265 46t-190 127.5t-111 189t-38 235.5
v568h262v-570q0 -186 91 -299.5t251 -113.5q172 0 266.5 112t94.5 303z" />
    <glyph glyph-name="alpha" unicode="&#x3b1;" horiz-adv-x="1673" 
d="M1300 541q-29 -90 -37 -157t0 -102.5t29 -56.5t40.5 -26.5t43.5 -5.5q44 0 85.5 25.5t60.5 51.5l20 25l49 -221q-20 -38 -85.5 -70.5t-139.5 -32.5q-131 0 -199 112t-26 302q-49 -135 -133.5 -231t-178 -139.5t-190.5 -43.5q-118 0 -216.5 47t-163.5 127t-100.5 185
t-35.5 223q0 92 21.5 180t65 166.5t104.5 137.5t146.5 93.5t184.5 34.5q206 0 334.5 -160.5t126.5 -410.5q2 8 6 20l139 523h246zM381 561q0 -193 85 -298t226 -105q237 0 367 299q-13 268 -105.5 397t-238.5 129q-79 0 -144 -36.5t-105.5 -96.5t-62.5 -134.5t-22 -154.5z
" />
    <glyph glyph-name="beta" unicode="&#x3b2;" horiz-adv-x="1517" 
d="M1395 492q0 -163 -72 -283t-189 -179t-262 -59q-83 0 -165 29.5t-157.5 95t-119.5 158.5v-711h-246v1522q0 119 31 214.5t83 158.5t125 104.5t152.5 59.5t169.5 18q234 0 380.5 -111.5t146.5 -300.5q0 -121 -98 -206t-259 -89q207 -14 343.5 -127.5t136.5 -293.5z
M750 1438q-52 0 -93.5 -7.5t-87.5 -33.5t-77 -70t-51.5 -123t-20.5 -186v-465q0 -63 13.5 -120.5t42.5 -108.5t70.5 -88.5t101.5 -59.5t132 -22q95 0 174.5 38.5t130 117t50.5 182.5q0 143 -98 237t-275 94h-178v146h229q56 0 98 17.5t64.5 41.5t36 57t17 56.5t3.5 46.5
q0 103 -71 176.5t-211 73.5z" />
    <glyph glyph-name="gamma" unicode="&#x3b3;" horiz-adv-x="1347" 
d="M520 -457v494l-500 1100h283l381 -918q125 175 231 416.5t168 501.5h244q-80 -323 -223 -613.5t-338 -523.5v-457h-246z" />
    <glyph glyph-name="delta" unicode="&#x3b4;" horiz-adv-x="1531" 
d="M1044 1200q1 5 1.5 13.5t-2.5 32.5t-10.5 46.5t-28 49.5t-51 46t-82.5 32.5t-119 13.5q-108 0 -177 -42.5t-69 -103.5q0 -41 31 -72.5t83 -53.5t120 -42t143 -42.5t149.5 -50.5t142.5 -72t120 -99.5t83 -139.5t31 -188q0 -77 -27.5 -155.5t-83 -150.5t-131.5 -128
t-180.5 -89.5t-222.5 -33.5q-145 0 -267 45t-203 121t-126 175.5t-45 209.5q0 124 52.5 222t141.5 158t201 91t238 31q39 0 57 -2q-297 60 -423 127.5t-126 187.5q0 76 64 140t174.5 101.5t242.5 37.5q106 0 194 -19t143.5 -49t98 -66.5t64 -73t34.5 -66.5t16 -49l3 -19z
M1147 569q0 94 -45 178t-134.5 139.5t-203.5 55.5q-112 0 -201.5 -55.5t-135.5 -140t-46 -177.5q0 -186 104.5 -300.5t278.5 -114.5q177 0 280 114t103 301z" />
    <glyph glyph-name="epsilon" unicode="&#x3b5;" horiz-adv-x="1376" 
d="M1040 453l254 -74q-2 -9 -5.5 -23.5t-22 -57t-43.5 -81t-74 -85.5t-109.5 -81t-154 -57t-203.5 -23q-141 0 -251 28.5t-175.5 76.5t-99 107.5t-33.5 125.5q0 121 108.5 197.5t311.5 89.5q-185 5 -286 66t-101 176q0 98 74.5 174t191 114.5t250.5 38.5q96 0 178 -16.5
t140.5 -44t105.5 -66t76.5 -79.5t49.5 -87t29 -86.5t11 -80.5l-254 -74q5 50 -2.5 98.5t-32 95t-62.5 81.5t-99.5 56t-139.5 21q-108 0 -189.5 -51.5t-81.5 -138.5q0 -54 59.5 -98t174.5 -44h219v-145h-219q-123 0 -190.5 -48t-67.5 -114q0 -97 92.5 -143.5t243.5 -46.5
q67 0 121 16.5t87 43t57.5 58t35.5 63.5t17.5 58.5t7.5 42.5z" />
    <glyph glyph-name="zeta" unicode="&#x3b6;" horiz-adv-x="1243" 
d="M940 -137q0 48 -26.5 85t-71.5 62t-103 46.5t-122.5 44.5t-129 51t-122.5 71t-103 98.5t-71.5 140t-26.5 189.5q0 116 44 219.5t117.5 185t185 156t231.5 132t272 114.5l-850 -41v174h1010l20 -137q-232 -108 -382.5 -203t-235.5 -192.5t-117.5 -191.5t-32.5 -214
q0 -81 26.5 -144.5t71.5 -104.5t103 -73.5t122.5 -56.5l129 -48t122.5 -54.5t103 -68.5t71.5 -97t26.5 -135q0 -107 -68 -189t-182.5 -124.5t-255.5 -42.5q-76 0 -139.5 13.5t-104.5 35t-72.5 47t-48.5 51.5t-27.5 47.5t-13.5 34.5l-3 14l233 74q0 -5 1.5 -14.5t11.5 -32.5
t27 -41t53 -32.5t85 -14.5q113 0 177.5 46.5t64.5 119.5z" />
    <glyph glyph-name="eta" unicode="&#x3b7;" horiz-adv-x="1531" 
d="M1102 -457v1157q0 141 -83 212t-239 71q-64 0 -116.5 -13.5t-88 -35t-63 -50.5t-42.5 -57.5t-24.5 -59t-12.5 -52t-3 -39.5v-676h-246v1137h119l105 -338q1 8 2.5 21t13 51t29 72.5t53.5 77t82.5 72.5t119.5 51t162 21q478 0 478 -460v-1162h-246z" />
    <glyph glyph-name="theta" unicode="&#x3b8;" horiz-adv-x="1515" 
d="M1393 797q0 -181 -40 -331t-118 -261t-199.5 -172.5t-277.5 -61.5t-277.5 61.5t-199.5 172.5t-118 261t-40 331t40 330.5t118 260t199.5 171.5t277.5 61t277.5 -61t199.5 -171.5t118 -260t40 -330.5zM758 1417q-89 0 -160 -41t-117.5 -114.5t-73 -171t-32.5 -216.5h766
q-6 119 -32.5 216.5t-73 171t-117.5 114.5t-160 41zM758 174q177 0 273.5 149.5t109.5 397.5h-766q13 -248 109.5 -397.5t273.5 -149.5z" />
    <glyph glyph-name="iota" unicode="&#x3b9;" horiz-adv-x="614" 
d="M184 0v1137h246v-1137h-246z" />
    <glyph glyph-name="kappa" unicode="&#x3ba;" horiz-adv-x="1339" 
d="M184 0v1137h246v-492l510 492h289l-508 -480l618 -657h-317l-475 514l-117 -111v-403h-246z" />
    <glyph glyph-name="lambda" unicode="&#x3bb;" horiz-adv-x="1404" 
d="M928 190l-248 615l-369 -805h-270l541 1026l-76 178q-48 113 -98 168t-136 55q-39 0 -73 -18.5t-46 -33t-16 -21.5l-39 164l10.5 10.5t30 23t49.5 29t67.5 23t84.5 10.5q58 0 104.5 -9.5t83.5 -32.5t64 -48.5t53.5 -69.5t45 -83t44.5 -101l420 -1006q48 -114 111 -114
q54 0 110 79l49 -161q-82 -99 -215 -99q-95 0 -163.5 50t-118.5 171z" />
    <glyph glyph-name="uni03BC" unicode="&#x3bc;" horiz-adv-x="1531" 
d="M430 1137v-619q0 -173 84 -268.5t238 -95.5q64 0 116.5 13.5t88 35t63 50.5t42.5 57.5t24.5 59t12.5 52t3 39.5v676h246v-1137h-119l-105 338q-1 -8 -2.5 -21t-12.5 -51t-27 -73t-49 -77t-75 -72.5t-109 -51.5t-147 -21q-68 0 -154 31t-118 68v-527h-246v1594h246z" />
    <glyph glyph-name="nu" unicode="&#x3bd;" horiz-adv-x="1347" 
d="M1083 1137h244q-80 -323 -223 -613.5t-338 -523.5h-217l-529 1137h283l381 -918q125 175 231 416.5t168 501.5z" />
    <glyph glyph-name="xi" unicode="&#x3be;" horiz-adv-x="1265" 
d="M457 492q0 -53 26.5 -94.5t70.5 -69.5t102 -51t121.5 -43t127 -41t121.5 -49.5t102 -64t70.5 -88.5t26.5 -120q0 -107 -68 -189t-182.5 -124.5t-255.5 -42.5q-60 0 -112 8.5t-89.5 22.5t-69.5 32t-53 38.5t-37 40.5t-25 38t-15 32t-8 23l-1 8l234 74q0 -5 1.5 -14.5
t11.5 -32.5t27 -41t53 -32.5t85 -14.5q113 0 177.5 46.5t64.5 119.5q0 37 -22 66.5t-59 49.5t-87 39t-106 33.5t-115.5 33.5t-115.5 39t-106 50.5t-87 67.5t-59 90.5t-22 118.5q0 141 112.5 231t283.5 113q-180 20 -262 85t-82 183q0 314 729 416l-779 -52v164h969l21 -168
q-687 -59 -687 -368q0 -86 79.5 -142.5t215.5 -56.5h260v-147h-280q-85 0 -147 -18t-95.5 -49.5t-49 -68.5t-15.5 -81z" />
    <glyph glyph-name="omicron" unicode="&#x3bf;" horiz-adv-x="1536" 
d="M123 569q0 125 44.5 234t125.5 189.5t203.5 126.5t271.5 46t271.5 -46t203.5 -126.5t125.5 -189.5t44.5 -234q0 -126 -44 -235t-125.5 -190t-204 -127t-271.5 -46t-271.5 46t-204 127t-125.5 190t-44 235zM385 569q0 -187 103 -301t280 -114q174 0 278.5 114.5
t104.5 300.5t-104.5 300t-278.5 114q-177 0 -280 -113.5t-103 -300.5z" />
    <glyph glyph-name="pi" unicode="&#x3c0;" horiz-adv-x="1683" 
d="M279 0l116 983h-313v154h1479v-154h-263v-571q0 -123 30.5 -180.5t80.5 -57.5q45 0 96 40t88 103l49 -182q-47 -65 -136 -114.5t-167 -49.5q-60 0 -109 17.5t-90 56.5t-64 110t-23 169v659h-439l-73 -983h-262z" />
    <glyph glyph-name="rho" unicode="&#x3c1;" horiz-adv-x="1529" 
d="M184 -457v985q0 133 30.5 239t85.5 180t134 123.5t174.5 72t208.5 22.5q256 0 423 -168t167 -428q0 -113 -31 -211t-84.5 -168t-124.5 -120t-151 -74.5t-164 -24.5q-124 0 -247 79t-175 204v-711h-246zM780 983q-109 0 -192 -57t-125.5 -150t-42.5 -207q0 -86 22 -160
t65 -131.5t113 -90.5t160 -33q165 0 265 115t100 300t-100 299.5t-265 114.5z" />
    <glyph glyph-name="sigma1" unicode="&#x3c2;" horiz-adv-x="1415" 
d="M981 -137q0 36 -17.5 65.5t-41 49t-71 39.5t-81 31t-98.5 30q-71 21 -109 33t-105.5 39.5t-106 53t-88 68.5t-76 91.5t-45.5 117.5t-19 150q0 112 42.5 209.5t121 169.5t196 113.5t260.5 41.5q134 0 238.5 -34.5t167.5 -87t105 -124.5t59 -138.5t20 -137.5l-254 -74
q5 63 -2.5 121t-31.5 112t-63 94t-100 63.5t-139 23.5q-171 0 -264.5 -101.5t-93.5 -271.5q0 -96 47.5 -164t123 -105.5t167 -66t183 -57.5t167 -68t123 -109t47.5 -169q0 -107 -68 -189t-182.5 -124.5t-255.5 -42.5q-76 0 -139.5 13.5t-104.5 35t-72.5 47t-48.5 51.5
t-27.5 47.5t-13.5 34.5l-3 14l233 74q0 -5 1.5 -14.5t11.5 -32.5t27 -41t53 -32.5t85 -14.5q113 0 177.5 46.5t64.5 119.5z" />
    <glyph glyph-name="sigma" unicode="&#x3c3;" horiz-adv-x="1536" 
d="M1495 983h-483q171 -51 274 -177.5t103 -283.5q0 -82 -26 -161.5t-78.5 -150t-125.5 -124t-174 -84.5t-217 -31q-149 0 -271.5 46t-204 127t-125.5 190t-44 235q0 255 173.5 411.5t473.5 156.5h725v-154zM385 569q0 -187 103 -301t280 -114q174 0 278.5 114.5
t104.5 300.5t-104.5 300t-278.5 114q-177 0 -280 -113.5t-103 -300.5z" />
    <glyph glyph-name="tau" unicode="&#x3c4;" horiz-adv-x="1130" 
d="M41 983v154h967v-154h-385v-571q0 -136 40.5 -197t137.5 -61q56 0 101 17t69.5 41t41 47.5t21.5 40.5l6 17l50 -182q-4 -7 -11 -18t-36 -39t-64.5 -50t-96.5 -39.5t-132 -17.5q-185 0 -279 101.5t-94 312.5v598h-336z" />
    <glyph glyph-name="upsilon" unicode="&#x3c5;" horiz-adv-x="1517" 
d="M1149 569q0 102 -12.5 207.5t-26.5 174t-41 186.5h260q34 -165 50 -288t16 -280q0 -169 -70.5 -303.5t-210 -214.5t-326.5 -80q-148 0 -265 46t-190 127.5t-111 189t-38 235.5v568h262v-570q0 -186 91 -299.5t251 -113.5q172 0 266.5 112t94.5 303z" />
    <glyph glyph-name="phi" unicode="&#x3c6;" horiz-adv-x="1796" 
d="M324 631q0 -195 110 -325.5t324 -160.5v547q0 204 136 338.5t363 134.5q93 0 174 -28t139.5 -76.5t100.5 -113.5t63 -140.5t21 -155.5q0 -112 -40.5 -212.5t-111.5 -177t-166.5 -136t-205 -95.5t-227.5 -50v-437h-246v437q-205 19 -363.5 102t-246 215.5t-87.5 292.5
q0 85 20 166t61.5 153.5t100 127t141 86.5t179.5 32q39 0 82 -6l62 -211q-37 18 -101 18q-76 0 -132.5 -29t-88 -78t-46.5 -103.5t-15 -114.5zM1004 692v-549q245 28 367 162.5t122 345.5q0 174 -60.5 263.5t-191.5 89.5q-119 0 -178 -84t-59 -228z" />
    <glyph glyph-name="chi" unicode="&#x3c7;" horiz-adv-x="1495" 
d="M987 -266l-227 440l-391 -631h-263l553 826l-196 379q-24 45 -33.5 62.5t-30.5 51.5t-35.5 47.5t-37 31t-47.5 24t-56 6.5q-25 0 -47 -7.5t-36 -17t-25 -22t-15 -18.5l-6 -9l-53 164q3 4 9.5 10.5t28.5 23t46.5 29t65 23t83.5 10.5q47 0 87 -8.5t71 -21.5t60 -38.5
t50 -48.5t46.5 -64t43.5 -73t46 -86q1 -3 2 -4l119 -227l344 551h266l-508 -744l307 -586q60 -114 121 -114q54 0 105 80l61 -162q-43 -45 -106 -71.5t-119 -26.5q-92 0 -156 48.5t-127 172.5z" />
    <glyph glyph-name="psi" unicode="&#x3c8;" horiz-adv-x="1927" 
d="M881 -457v432q-348 26 -522.5 206t-174.5 491v465h262v-467q0 -460 435 -510v1243h245v-1241q216 26 327.5 145.5t111.5 323.5q0 73 -12.5 164t-26.5 157.5t-41 184.5h254q65 -313 65 -506q0 -276 -175.5 -450t-502.5 -204v-434h-245z" />
    <glyph glyph-name="omega" unicode="&#x3c9;" horiz-adv-x="2154" 
d="M1208 819v-270q0 -192 73.5 -290.5t201.5 -98.5q41 0 81.5 15t77.5 48t65 79.5t45 115.5t17 151q0 198 -97 303t-259 105q-46 0 -88 -19l61 191q44 6 87 6q113 0 214.5 -42t178 -117t121.5 -186t45 -241q0 -117 -29 -216.5t-78.5 -168.5t-115.5 -118t-140 -72t-151 -23
q-80 0 -148.5 26t-129 82t-103 156.5t-60.5 237.5q-14 -115 -47 -203.5t-76 -144t-99 -91t-113 -49.5t-121 -14q-76 0 -147.5 23t-135.5 71t-111.5 117.5t-75.5 169t-28 217.5q0 256 157.5 421t405.5 165q38 0 82 -6l61 -191q-39 19 -100 19q-344 0 -344 -408
q0 -102 25.5 -182.5t68 -128.5t92.5 -73t103 -25q121 0 196.5 98.5t75.5 292.5v268h262z" />
    <glyph glyph-name="iotadieresis" unicode="&#x3ca;" horiz-adv-x="614" 
d="M-20 1395v196h245v-196h-245zM389 1395v196h246v-196h-246zM184 0v1137h246v-1137h-246z" />
    <glyph glyph-name="upsilondieresis" unicode="&#x3cb;" horiz-adv-x="1517" 
d="M436 1395v196h246v-196h-246zM846 1395v196h246v-196h-246zM1149 569q0 102 -12.5 207.5t-26.5 174t-41 186.5h260q34 -165 50 -288t16 -280q0 -169 -70.5 -303.5t-210 -214.5t-326.5 -80q-148 0 -265 46t-190 127.5t-111 189t-38 235.5v568h262v-570q0 -186 91 -299.5
t251 -113.5q172 0 266.5 112t94.5 303z" />
    <glyph glyph-name="omicrontonos" unicode="&#x3cc;" horiz-adv-x="1536" 
d="M877 1681h307l-408 -385h-137zM123 569q0 125 44.5 234t125.5 189.5t203.5 126.5t271.5 46t271.5 -46t203.5 -126.5t125.5 -189.5t44.5 -234q0 -126 -44 -235t-125.5 -190t-204 -127t-271.5 -46t-271.5 46t-204 127t-125.5 190t-44 235zM385 569q0 -187 103 -301
t280 -114q174 0 278.5 114.5t104.5 300.5t-104.5 300t-278.5 114q-177 0 -280 -113.5t-103 -300.5z" />
    <glyph glyph-name="upsilontonos" unicode="&#x3cd;" horiz-adv-x="1517" 
d="M897 1681h307l-407 -385h-138zM1149 569q0 102 -12.5 207.5t-26.5 174t-41 186.5h260q34 -165 50 -288t16 -280q0 -169 -70.5 -303.5t-210 -214.5t-326.5 -80q-148 0 -265 46t-190 127.5t-111 189t-38 235.5v568h262v-570q0 -186 91 -299.5t251 -113.5q172 0 266.5 112
t94.5 303z" />
    <glyph glyph-name="omegatonos" unicode="&#x3ce;" horiz-adv-x="2154" 
d="M1206 1681h307l-407 -385h-137zM1208 819v-270q0 -192 73.5 -290.5t201.5 -98.5q41 0 81.5 15t77.5 48t65 79.5t45 115.5t17 151q0 198 -97 303t-259 105q-46 0 -88 -19l61 191q44 6 87 6q113 0 214.5 -42t178 -117t121.5 -186t45 -241q0 -117 -29 -216.5t-78.5 -168.5
t-115.5 -118t-140 -72t-151 -23q-80 0 -148.5 26t-129 82t-103 156.5t-60.5 237.5q-14 -115 -47 -203.5t-76 -144t-99 -91t-113 -49.5t-121 -14q-76 0 -147.5 23t-135.5 71t-111.5 117.5t-75.5 169t-28 217.5q0 256 157.5 421t405.5 165q38 0 82 -6l61 -191q-39 19 -100 19
q-344 0 -344 -408q0 -102 25.5 -182.5t68 -128.5t92.5 -73t103 -25q121 0 196.5 98.5t75.5 292.5v268h262z" />
    <glyph glyph-name="endash" unicode="&#x2013;" horiz-adv-x="1044" 
d="M1004 614v-102h-963v102h963z" />
    <glyph glyph-name="emdash" unicode="&#x2014;" horiz-adv-x="1632" 
d="M1591 614v-102h-1550v102h1550z" />
    <glyph glyph-name="quoteleft" unicode="&#x2018;" horiz-adv-x="634" 
d="M184 985v246q0 71 17 139t41 115t48 84t41 55l17 18l180 -53q-7 -4 -19.5 -12.5t-46.5 -38t-61.5 -62.5t-56 -85.5t-39.5 -108.5h146v-297h-267z" />
    <glyph glyph-name="quoteright" unicode="&#x2019;" horiz-adv-x="634" 
d="M451 1642v-245q0 -71 -17 -139t-41 -115.5t-48 -84.5t-41 -55l-17 -18l-181 53q7 4 20 13t46.5 38.5t61.5 62.5t56.5 85.5t39.5 108.5h-146v296h267z" />
    <glyph glyph-name="quotesinglbase" unicode="&#x201a;" horiz-adv-x="634" 
d="M451 297v-246q0 -71 -17 -139t-41 -115t-48 -84t-41 -55l-17 -18l-181 53q7 4 20 12.5t46.5 38t61.5 62.5t56.5 85.5t39.5 108.5h-146v297h267z" />
    <glyph glyph-name="quotedblleft" unicode="&#x201c;" horiz-adv-x="1146" 
d="M618 983v246q0 71 17 139t41 115t48 84t41 55l17 18l181 -53q-7 -4 -20 -12.5t-46.5 -38t-61.5 -62.5t-56.5 -85.5t-39.5 -108.5h146v-297h-267zM106 983v246q0 71 17 139t41 115t48 84t41 55l17 18l181 -53q-7 -4 -20 -12.5t-46.5 -38t-61.5 -62.5t-56.5 -85.5
t-39.5 -108.5h146v-297h-267z" />
    <glyph glyph-name="quotedblright" unicode="&#x201d;" horiz-adv-x="1146" 
d="M451 1640v-245q0 -71 -17 -139t-41 -115.5t-48 -84.5t-41 -55l-17 -18l-181 53q7 4 20 12.5t46.5 38t61.5 62.5t56.5 85.5t39.5 108.5h-146v297h267zM963 1640v-245q0 -71 -17 -139t-41 -115.5t-48 -84.5t-41 -55l-17 -18l-181 53q7 4 20 12.5t46.5 38t61.5 62.5
t56.5 85.5t39.5 108.5h-146v297h267z" />
    <glyph glyph-name="quotedblbase" unicode="&#x201e;" horiz-adv-x="1146" 
d="M451 297v-246q0 -71 -17 -139t-41 -115t-48 -84t-41 -55l-17 -18l-181 53q7 4 20 12.5t46.5 38t61.5 62.5t56.5 85.5t39.5 108.5h-146v297h267zM963 297v-246q0 -71 -17 -139t-41 -115t-48 -84t-41 -55l-17 -18l-181 53q7 4 20 12.5t46.5 38t61.5 62.5t56.5 85.5
t39.5 108.5h-146v297h267z" />
    <glyph glyph-name="dagger" unicode="&#x2020;" horiz-adv-x="983" 
d="M942 983h-328v-1440h-245v1440h-328v154h328l30 454h185l30 -454h328v-154z" />
    <glyph glyph-name="daggerdbl" unicode="&#x2021;" horiz-adv-x="983" 
d="M41 0v154h328v827h-328v154h328l30 454h185l30 -454h328v-154h-328v-827h328v-154h-328l-30 -457h-185l-30 457h-328z" />
    <glyph glyph-name="bullet" unicode="&#x2022;" horiz-adv-x="1323" 
d="M1237 889q24 -75 27 -176l-594 596q85 0 176 -33zM1262 680q0 -66 -13 -113l-723 727q59 12 113 9zM1237 532q-4 -10 -14.5 -40.5t-18.5 -45.5l-801 803q9 4 25 12t29.5 13t29.5 8zM1085 1130q109 -109 146 -219l-361 361q120 -42 215 -142zM1184 408q-9 -26 -45 -62
l-838 840l59 45zM1090 281l-21 -23l-854 852l25 20l20 25l852 -854zM1012 219q-16 -16 -35 -24l-830 827l27 37zM92 905q20 39 21 41l786 -788l-37 -19zM764 113l-31 -9l-667 672l2 35zM68 610l-7 23l531 -529l-25 5zM233 279q-22 17 -43 47l82 -80z" />
    <glyph glyph-name="ellipsis" unicode="&#x2026;" horiz-adv-x="1576" 
d="M184 0v297h267v-297h-267zM655 0v276h267v-276h-267zM1126 0v256h267v-256h-267z" />
    <glyph glyph-name="perthousand" unicode="&#x2030;" horiz-adv-x="2631" 
d="M41 1208q0 184 122 299t310 115t310 -115t122 -299t-122 -297.5t-310 -113.5t-310 113.5t-122 297.5zM1319 1606l98 -50l-846 -1562l-94 47zM166 1208q0 -139 80 -227t227 -88t227 88t80 227t-80 227.5t-227 88.5t-227 -88.5t-80 -227.5zM987 389q0 184 122 299t310 115
q121 0 217 -49.5t152 -139.5q57 90 153.5 139.5t217.5 49.5q188 0 310 -115t122 -299t-122 -298t-310 -114q-121 0 -217 49.5t-152 137.5q-58 -89 -154.5 -138t-216.5 -49q-188 0 -310 114t-122 298zM1112 389q0 -139 80 -227t227 -88t227 88t80 227t-80 227.5t-227 88.5
t-227 -88.5t-80 -227.5zM1851 389q0 -139 80.5 -227t227.5 -88t227 88t80 227t-80 227.5t-227 88.5t-227.5 -88.5t-80.5 -227.5z" />
    <glyph glyph-name="guilsinglleft" unicode="&#x2039;" horiz-adv-x="677" 
d="M61 567l371 449h184l-309 -449l309 -448h-184z" />
    <glyph glyph-name="guilsinglright" unicode="&#x203a;" horiz-adv-x="677" 
d="M246 1016l370 -449l-370 -448h-185l310 448l-310 449h185z" />
    <glyph glyph-name="fraction" unicode="&#x2044;" horiz-adv-x="940" 
d="M842 1440l98 -49l-846 -1563l-94 47z" />
    <glyph glyph-name="Euro" unicode="&#x20ac;" 
d="M1065 680v-102h-641q38 -188 149 -296t293 -108q73 0 133.5 17.5t102 46.5t74 67t51 80t31 84t17 80t7 67t1.5 46l-1 18l274 -80q0 -8 -1 -22t-8.5 -57t-19 -84.5t-37 -98.5t-58.5 -105.5t-87 -98t-119.5 -84.5t-158.5 -57t-201 -22q-286 0 -476 165t-247 442h-143v102
h129q-6 56 -6 115q0 36 4 110h-86v103h100q52 281 235.5 446.5t469.5 165.5q150 0 268 -36.5t187 -94.5t118 -128.5t68 -140.5t28.5 -128t8.5 -94l-2 -37l-275 -82q1 7 1 19t-1 48.5t-5.5 72.5t-16.5 84t-30 90t-49 84.5t-71 72t-99 48.5t-130 19q-183 0 -287.5 -108.5
t-138.5 -300.5h686v-103h-698q-5 -87 -5 -110q0 -50 7 -115h655z" />
    <glyph glyph-name="Omega" unicode="&#x2126;" horiz-adv-x="2103" 
d="M82 174h547q-127 39 -225 109t-159 161t-91.5 195t-30.5 217q0 119 41.5 232t123 209t192.5 168.5t258.5 113.5t312.5 41q206 0 382.5 -63.5t295 -169.5t185 -244t66.5 -287q0 -227 -149.5 -415.5t-405.5 -266.5h596v-174h-833v166q232 41 372 212.5t140 416.5
q0 131 -47.5 245.5t-131.5 197.5t-206 131t-264 48q-189 0 -337.5 -82t-229.5 -223.5t-81 -316.5q0 -243 135 -413t363 -214v-168h-819v174z" />
    <glyph glyph-name="Delta" unicode="&#x2206;" horiz-adv-x="1994" 
d="M1217 1591l737 -1591h-1913l737 1591h439zM963 1417l-562 -1243h1190l-557 1243h-71z" />
    <glyph glyph-name="minus" unicode="&#x2212;" horiz-adv-x="1331" 
d="M1290 614v-102h-1249v102h1249z" />
    <glyph glyph-name="S.alt" horiz-adv-x="1646" 
d="M827 573l56 -202q-4 4 -10.5 10t-31 22.5t-52 29t-72 22.5t-92.5 10q-103 0 -162.5 -45.5t-59.5 -124.5q0 -56 29 -107.5t84 -94t144.5 -68t201.5 -25.5q86 0 165.5 20t147.5 59.5t109 108.5t41 158q0 150 -101.5 241t-332.5 173l-619 223v154l1119 483l59 -221
l-952 -309l628 -175q228 -63 354 -204.5t126 -350.5q0 -138 -58 -246.5t-161 -177t-239 -104t-296 -35.5q-159 0 -295.5 39t-231.5 106t-148.5 160t-53.5 199q0 70 27.5 133t79.5 113t137 80t190 30q50 0 96 -8.5t76.5 -21t53.5 -25t33 -20.5z" />
    <glyph glyph-name="Q.alt" horiz-adv-x="2023" 
d="M907 12l1035 -350l-60 -221l-1118 483v283q102 -33 221 -33q191 0 341 82t231 223.5t81 315.5q0 131 -47.5 245.5t-131.5 197.5t-206 131t-264 48q-140 0 -253 -41.5t-185 -113t-110 -164.5t-38 -199q0 -80 22.5 -148.5t68 -122.5t120.5 -85t172 -31q65 0 118.5 16
t89.5 43.5t64 63.5t43.5 75.5t26 78.5t14 75t4.5 63.5t0 43.5l-1 16l272 -80q0 -12 -1 -34t-12.5 -84t-33.5 -118.5t-71 -125.5t-116 -118.5t-177.5 -83.5t-247.5 -34q-287 0 -461 167.5t-174 436.5q0 149 59 278t168 224.5t273.5 150t365.5 54.5q208 0 383 -62t294.5 -171
t186 -261.5t66.5 -330.5q0 -133 -37.5 -251.5t-104.5 -210t-160.5 -163.5t-206 -111.5t-240 -54.5t-263.5 8z" />
    <glyph glyph-name="B.alt" horiz-adv-x="2004" 
d="M717 268h-266v1323h675q715 0 715 -389q0 -63 -19 -116t-49 -88t-66.5 -62t-73 -41.5t-66.5 -24t-49 -12.5l-19 -2q8 0 22 -2t53.5 -11.5t75.5 -24.5t80.5 -46t76 -71.5t53.5 -105t22 -142.5q0 -228 -174.5 -340.5t-540.5 -112.5h-1167v205l1167 -31q97 -2 172.5 10
t136.5 42.5t93.5 87.5t32.5 139q0 66 -22 115t-59.5 79.5t-94.5 49t-118.5 25.5t-140.5 7h-450v-461zM717 903h409q98 0 172.5 12t136 40t94 80t32.5 126t-32.5 126t-94 79.5t-135.5 39t-173 11.5h-409v-514z" />
    <glyph glyph-name="O.alt" horiz-adv-x="2041" 
d="M764 -10v217q102 -33 221 -33q191 0 341 82t231 223.5t81 315.5q0 131 -47.5 245.5t-131.5 197.5t-206 131t-264 48q-140 0 -253 -41.5t-185 -113t-110 -164.5t-38 -199q0 -80 22.5 -148.5t68 -122.5t120.5 -85t172 -31q65 0 118.5 16t89.5 43.5t64 63.5t43.5 75.5
t26 78.5t14 75t4.5 63.5t0 43.5l-1 16l272 -80q0 -12 -1 -34t-12.5 -84t-33.5 -118.5t-71 -125.5t-116 -118.5t-177.5 -83.5t-247.5 -34q-287 0 -461 167.5t-174 436.5q0 149 59 278t168 224.5t273.5 150t365.5 54.5q208 0 383 -62t294.5 -171t186 -261.5t66.5 -330.5
q0 -118 -27 -223t-76.5 -187.5t-118 -151.5t-151 -117t-176.5 -81.5t-194.5 -49t-204.5 -14.5t-207 19z" />
    <glyph glyph-name="zero.alt" horiz-adv-x="2179" 
d="M123 637q0 200 75.5 379.5t204 308t308 204t379.5 75.5t379.5 -75.5t308 -204t203.5 -308t75 -379.5t-75 -379.5t-203.5 -308t-308 -204t-379.5 -75.5t-379.5 75.5t-308 204t-204 308t-75.5 379.5zM238 635q0 -174 67 -332t181 -272t272 -181t332 -67t332 67t272 181
t181 272t67 332t-67 332t-181 272t-272 181t-332 67t-332 -67t-272 -181t-181 -272t-67 -332zM1591 637q0 -175 -54.5 -307t-169 -209.5t-277.5 -77.5t-277.5 77.5t-169.5 209.5t-55 307t55 307t169.5 209.5t277.5 77.5t277.5 -77.5t169 -209.5t54.5 -307zM1389 637
q0 98 -16.5 176.5t-50.5 140.5t-93 95.5t-139 33.5t-139 -33.5t-93 -95.5t-50.5 -140.5t-16.5 -176.5q0 -99 16.5 -178t50.5 -141t93 -96t139 -34t139 34t93 96t50.5 141t16.5 178z" />
    <glyph glyph-name="three.susp_prop" horiz-adv-x="1677" 
d="M793 272h-103v154h103q182 0 301.5 81t119.5 204q0 124 -101.5 198t-258.5 74q-90 0 -161.5 -22t-114 -56.5t-72.5 -77t-42.5 -84.5t-18.5 -76.5t-5 -56.5v-22l-254 82q1 10 4.5 28t22 69.5t45.5 98t80 104t121 98.5t173.5 69t231.5 28q271 0 441 -120t170 -297
q0 -70 -23.5 -127.5t-58 -93t-82 -62t-88 -39t-83.5 -20t-61.5 -8.5t-29.5 -1q13 0 32 -1t67.5 -9t92.5 -22t96.5 -44t90 -70.5t63 -106.5t25.5 -148q0 -98 -36 -178t-98.5 -135.5t-148.5 -94t-184.5 -56t-208.5 -17.5q-115 0 -214 19t-168.5 50.5t-127 73t-93.5 87.5
t-63 91.5t-40 87t-21 73t-9 50.5l-2 19l254 79q4 -1 -0.5 -24.5t6.5 -64t22.5 -87.5t48 -95.5t84.5 -87.5t130.5 -64t186.5 -25q187 0 304 82t117 219q0 62 -26 110t-68.5 78.5t-103 50t-125 27.5t-139.5 8z" />
    <glyph glyph-name="one.susp_prop" horiz-adv-x="1167" 
d="M983 0h-246l-2 963q0 -97 -15 -161.5t-53.5 -116t-109 -80t-175.5 -42.5t-259 -14v182q319 0 466.5 90t147.5 316h246v-1137z" />
    <glyph glyph-name="five.susp_prop" 
d="M1516 66q0 -171 -86 -296.5t-240 -190t-359 -64.5q-145 0 -263.5 30.5t-192 79t-128.5 107t-81.5 117.5t-42.5 107.5t-19 79.5l-2 30l254 79q0 -9 0.5 -25.5t9 -63t24 -88.5t50.5 -94t83.5 -89t128.5 -62.5t179 -25.5q198 0 311 99.5t113 269.5t-112.5 268t-311.5 98
q-65 0 -123 -12.5t-95 -30t-65 -34.5t-40 -29l-12 -13h-252l145 824h1053v-154h-846l-96 -575q4 8 13 22t45 49.5t81 62.5t124.5 49.5t172.5 22.5q153 0 285 -67.5t213.5 -194.5t81.5 -286z" />
    <glyph glyph-name="six.susp_prop" 
d="M1516 498q0 -151 -85.5 -272t-237.5 -188t-341 -67q-171 0 -309.5 61.5t-230 171.5t-140.5 261.5t-49 331.5q0 179 50.5 330t143.5 260.5t232.5 171t310.5 61.5q86 0 163 -15.5t134 -42t106 -60.5t83 -72t61 -75.5t43 -71.5t26.5 -60.5t14.5 -42.5l4 -15l-252 -82
q-1 7 -2.5 20t-12 50t-25.5 70.5t-45 74.5t-68 70.5t-98 49.5t-132 20q-148 0 -258 -88t-164.5 -232t-54.5 -321q0 -89 12 -168q47 186 191.5 290.5t371.5 104.5q107 0 204 -31t177.5 -92.5t128.5 -165.5t48 -237zM852 842q-102 0 -183 -36.5t-128.5 -95.5t-70 -130
t-17.5 -144q57 -132 159 -207t240 -75q194 0 298.5 93t104.5 251t-104.5 251t-298.5 93z" />
    <glyph glyph-name="seven.susp_prop" horiz-adv-x="1495" 
d="M1434 1137v-236q-7 -2 -20.5 -7t-56 -27t-85.5 -52.5t-106 -87t-122 -126.5t-128.5 -175.5t-130.5 -229t-122.5 -292.5t-109.5 -361h-266q59 237 143 444t171.5 349t180 259t173.5 187t145 117.5t102 65.5l37 18h-1198v154h1393z" />
    <glyph glyph-name="eight.susp_prop" 
d="M1495 1176q0 -63 -21 -117t-55 -91t-74.5 -67t-81.5 -47t-75 -29t-55 -16l-21 -4q9 0 25 -1.5t62 -10.5t88 -22.5t93.5 -42t88 -65.5t62 -95.5t25.5 -129.5q0 -119 -60 -210.5t-164 -146.5t-234 -82.5t-279 -27.5q-150 0 -280 27.5t-234 82.5t-163.5 146.5t-59.5 210.5
q0 67 22.5 124.5t59 96.5t80.5 70.5t88 49.5t80.5 30t59.5 16l22 4q-7 1 -20 4t-49.5 15t-69.5 27.5t-73.5 44t-69.5 62.5t-49 84.5t-20 109.5q0 130 91 232t244.5 157t340.5 55t340.5 -55t244.5 -157t91 -232zM403 1176q0 -65 32 -116.5t79 -80.5t107 -48t108 -25.5
t90 -6.5q199 0 307.5 75.5t108.5 201.5q0 104 -110.5 183t-305.5 79t-305.5 -79t-110.5 -183zM1296 438q0 54 -20.5 98.5t-53.5 74t-78 52t-88.5 34.5t-92 20t-81.5 10t-63 2q-95 0 -176.5 -15t-151 -47t-109.5 -90.5t-40 -138.5q0 -93 68.5 -158.5t174 -95.5t234.5 -30
t234.5 30t174 95.5t68.5 158.5z" />
    <glyph glyph-name="nine.susp_prop" 
d="M1516 340q0 -239 -86.5 -425t-255 -293t-396.5 -107q-86 0 -163 15.5t-134 42t-106 60.5t-83 71.5t-61 75t-43 71.5t-26.5 60.5t-14.5 42.5l-4 15l252 82q1 -7 2.5 -20t12 -49.5t25.5 -70t45 -74.5t68 -70.5t98 -49.5t132 -20q148 0 258 88.5t164.5 233t54.5 321.5
q0 88 -12 168q-47 -186 -191.5 -290.5t-371.5 -104.5q-85 0 -164 19t-151 60.5t-125.5 101.5t-85 149t-31.5 196q0 151 85.5 271.5t237 187.5t340.5 67q228 0 394.5 -107t251 -292t84.5 -426zM383 639q0 -158 104.5 -251t298.5 -93q102 0 183 36.5t129 95t70.5 129.5
t17.5 144q-58 132 -160 207.5t-240 75.5q-194 0 -298.5 -93t-104.5 -251z" />
    <glyph glyph-name="four.susp_prop" 
d="M82 0v236l864 901h332v-983h340v-154h-340v-455h-246v455h-950zM1032 942l-743 -788h743v788z" />
    <glyph glyph-name="two.susp_prop" 
d="M215 766q0 121 72.5 212t199 139t287.5 48q140 0 247 -34.5t170.5 -94.5t95.5 -136.5t32 -166.5q0 -71 -20.5 -134.5t-56.5 -114t-89 -95.5t-112 -79t-132 -64t-143.5 -51.5t-151.5 -40.5h758v-154h-1188v174q80 14 141 25.5t138.5 29t135.5 34.5t123 41.5t112 51
t92 61.5t73 74t45 87.5t17 103.5q0 135 -83.5 218t-234.5 83q-127 0 -200.5 -59t-73.5 -162q0 -41 13.5 -75t33.5 -54.5t39.5 -34.5t32.5 -20l14 -5l-274 -79q-5 3 -12.5 9.5t-27 30.5t-34.5 52.5t-27 77t-12 102.5z" />
    <glyph glyph-name="acute.case" horiz-adv-x="1488" 
d="M1249 1681h307l-407 -385h-137z" />
    <glyph glyph-name="grave.case" horiz-adv-x="1488" 
d="M778 1681h307l238 -385h-137z" />
    <glyph glyph-name="circumflex.case" horiz-adv-x="2465" 
d="M1077 1681h185l360 -385h-137l-316 217l-315 -217h-137z" />
    <glyph glyph-name="tilde.case" horiz-adv-x="2465" 
d="M1397 1505q29 0 52.5 12t37 28.5t23 33.5t12.5 29l4 12l82 -74q-2 -8 -6 -21t-21.5 -47t-39.5 -60t-62 -47t-88 -21q-53 0 -100 18t-75.5 39t-68 39t-80.5 18q-27 0 -50.5 -11.5t-37 -28.5t-23 -34t-12.5 -28l-4 -12l-82 73q2 8 6 21.5t21.5 47.5t39.5 59.5t62 47
t88 21.5q52 0 99 -18t76 -39.5t68.5 -39.5t78.5 -18z" />
    <glyph glyph-name="dieresis.case" horiz-adv-x="733" 
d="M39 1395v196h246v-196h-246zM449 1395v196h245v-196h-245z" />
    <glyph glyph-name="ring.case" horiz-adv-x="2465" 
d="M1008 1493q0 93 65.5 160t157.5 67q97 0 162 -64.5t65 -162.5q0 -91 -67.5 -157t-159.5 -66q-91 0 -157 66t-66 157zM1133 1495q0 -43 28.5 -71.5t71.5 -28.5q42 0 71 30t29 70q0 39 -29 69.5t-71 30.5q-43 0 -71.5 -28.5t-28.5 -71.5z" />
    <glyph glyph-name="zero.susp_prop" 
d="M123 567q0 124 48.5 233t136.5 190t220.5 128t290.5 47t290.5 -47t220.5 -128t137 -190t49 -233t-49 -232.5t-137 -189.5t-220.5 -127.5t-290.5 -46.5t-290 46.5t-220.5 127.5t-137 189.5t-48.5 232.5zM309 567q0 -98 34.5 -184.5t98 -152.5t161 -104t216.5 -38t216.5 38
t161 104t98 152.5t34.5 184.5q0 132 -58.5 239.5t-176 174t-275.5 66.5t-275.5 -66.5t-176 -174t-58.5 -239.5z" />
    <glyph glyph-name="one.alt" horiz-adv-x="2179" 
d="M123 637q0 200 75.5 379.5t204 308t308 204t379.5 75.5t379.5 -75.5t308 -204t203.5 -308t75 -379.5t-75 -379.5t-203.5 -308t-308 -204t-379.5 -75.5t-379.5 75.5t-308 204t-204 308t-75.5 379.5zM238 635q0 -174 67 -332t181 -272t272 -181t332 -67t332 67t272 181
t181 272t67 332t-67 332t-181 272t-272 181t-332 67t-332 -67t-272 -181t-181 -272t-67 -332zM1583 63h-944v125h442v895q0 -70 -11 -117.5t-39 -87t-78 -61.5t-127 -33.5t-187 -11.5v146q229 0 335.5 64.5t106.5 225.5h193v-1020h309v-125z" />
    <glyph glyph-name="two.alt" horiz-adv-x="2179" 
d="M123 637q0 200 75.5 379.5t204 308t308 204t379.5 75.5t379.5 -75.5t308 -204t203.5 -308t75 -379.5t-75 -379.5t-203.5 -308t-308 -204t-379.5 -75.5t-379.5 75.5t-308 204t-204 308t-75.5 379.5zM238 635q0 -174 67 -332t181 -272t272 -181t332 -67t332 67t272 181
t181 272t67 332t-67 332t-181 272t-272 181t-332 67t-332 -67t-272 -181t-181 -272t-67 -332zM1532 852q0 -64 -20.5 -125.5t-53 -111.5t-81 -100.5t-95 -87.5t-105.5 -76.5t-102.5 -65t-95 -55.5t-74.5 -44h649v-125h-944v111q15 6 41 17.5t100.5 50t142.5 79.5t151 104
t142.5 125.5t100.5 141.5t41 156q0 104 -65.5 169.5t-196.5 65.5q-126 0 -189 -66t-63 -167q0 -43 14.5 -83t34.5 -67t40.5 -47.5t35.5 -30.5l14 -10l-196 -57q-6 4 -15.5 12.5t-34 38t-43 62t-34 84t-15.5 106.5q0 68 28.5 133t83 119.5t144 87.5t199.5 33q221 0 341 -105
t120 -272z" />
    <glyph glyph-name="three.alt" horiz-adv-x="2179" 
d="M123 637q0 200 75.5 379.5t204 308t308 204t379.5 75.5t379.5 -75.5t308 -204t203.5 -308t75 -379.5t-75 -379.5t-203.5 -308t-308 -204t-379.5 -75.5t-379.5 75.5t-308 204t-204 308t-75.5 379.5zM238 635q0 -174 67 -332t181 -272t272 -181t332 -67t332 67t272 181
t181 272t67 332t-67 332t-181 272t-272 181t-332 67t-332 -67t-272 -181t-181 -272t-67 -332zM1057 588h-74v127h74q132 0 210.5 50t78.5 138q0 80 -68 130t-178 50q-62 0 -111 -15t-78 -38.5t-49.5 -52.5t-28.5 -58t-12.5 -52.5t-4.5 -38.5l1 -15l-196 59q1 8 3.5 20.5
t15.5 50t32 71.5t57.5 75.5t87 71t124.5 50t167 20.5q194 0 316 -87t122 -214q0 -71 -31.5 -122.5t-76 -75.5t-89.5 -37.5t-77 -14.5l-31 -2q10 0 23 -0.5t48.5 -6.5t66.5 -15.5t69 -31.5t65 -51t45.5 -77t18.5 -107q0 -70 -26 -128t-70.5 -98t-106.5 -67.5t-133.5 -40
t-150.5 -12.5q-83 0 -154 13.5t-121.5 36.5t-91.5 53t-67 63t-45.5 65.5t-29 62.5t-15 53t-6.5 36l-1 14l197 58q2 0 0 -10.5t1.5 -28.5t6 -41t14.5 -49t26 -51.5t40 -49t58 -41.5t79.5 -28.5t103.5 -10.5q134 0 211.5 52.5t77.5 150.5q0 197 -317 197z" />
    <glyph glyph-name="four.alt" horiz-adv-x="2179" 
d="M123 637q0 200 75.5 379.5t204 308t308 204t379.5 75.5t379.5 -75.5t308 -204t203.5 -308t75 -379.5t-75 -379.5t-203.5 -308t-308 -204t-379.5 -75.5t-379.5 75.5t-308 204t-204 308t-75.5 379.5zM238 635q0 -174 67 -332t181 -272t272 -181t332 -67t332 67t272 181
t181 272t67 332t-67 332t-181 272t-272 181t-332 67t-332 -67t-272 -181t-181 -272t-67 -332zM469 340v184l623 684h251v-741h232v-127h-232v-277h-190v277h-684zM1153 1069l-535 -602h535v602z" />
    <glyph glyph-name="five.alt" horiz-adv-x="2179" 
d="M123 637q0 200 75.5 379.5t204 308t308 204t379.5 75.5t379.5 -75.5t308 -204t203.5 -308t75 -379.5t-75 -379.5t-203.5 -308t-308 -204t-379.5 -75.5t-379.5 75.5t-308 204t-204 308t-75.5 379.5zM238 635q0 -174 67 -332t181 -272t272 -181t332 -67t332 67t272 181
t181 272t67 332t-67 332t-181 272t-272 181t-332 67t-332 -67t-272 -181t-181 -272t-67 -332zM1579 440q0 -186 -134.5 -291.5t-359.5 -105.5q-82 0 -152 13.5t-120 36.5t-90.5 53t-66 63t-44.5 65.5t-28.5 62.5t-15 53t-6.5 36l-1 14l197 58q0 -4 -0.5 -11t1.5 -28t6 -41.5
t14.5 -48.5t25 -52t40 -48.5t58 -41.5t79.5 -28t103 -11q132 0 211.5 70t79.5 182q0 111 -79 179.5t-212 68.5q-49 0 -91.5 -7t-69 -17.5t-45.5 -21t-27 -17.5l-8 -7h-197l107 590h772v-125h-608l-70 -397q3 6 9.5 16t32 36t57.5 46t89.5 36t124.5 16q110 0 205 -49
t154 -141t59 -206z" />
    <glyph glyph-name="six.alt" horiz-adv-x="2179" 
d="M123 637q0 200 75.5 379.5t204 308t308 204t379.5 75.5t379.5 -75.5t308 -204t203.5 -308t75 -379.5t-75 -379.5t-203.5 -308t-308 -204t-379.5 -75.5t-379.5 75.5t-308 204t-204 308t-75.5 379.5zM238 635q0 -174 67 -332t181 -272t272 -181t332 -67t332 67t272 181
t181 272t67 332t-67 332t-181 272t-272 181t-332 67t-332 -67t-272 -181t-181 -272t-67 -332zM1567 422q0 -165 -135.5 -272t-341.5 -107q-164 0 -284.5 77t-181.5 210.5t-61 306.5t62.5 306.5t183.5 210.5t285 77q79 0 147 -18t113.5 -47t82 -64t57.5 -70t34.5 -64
t18.5 -47l5 -18l-196 -59q-1 10 -4 26t-19.5 57t-42 72.5t-77.5 57.5t-119 26q-158 0 -243 -124t-85 -322q0 -26 4 -76q31 116 139 178t256 62q77 0 147 -22.5t128 -66.5t92.5 -119t34.5 -171zM1090 655q-116 0 -195.5 -61.5t-101.5 -159.5q34 -115 108.5 -180.5
t188.5 -65.5q135 0 204.5 64.5t69.5 169.5t-69.5 169t-204.5 64z" />
    <glyph glyph-name="seven.alt" horiz-adv-x="2179" 
d="M123 637q0 200 75.5 379.5t204 308t308 204t379.5 75.5t379.5 -75.5t308 -204t203.5 -308t75 -379.5t-75 -379.5t-203.5 -308t-308 -204t-379.5 -75.5t-379.5 75.5t-308 204t-204 308t-75.5 379.5zM238 635q0 -174 67 -332t181 -272t272 -181t332 -67t332 67t272 181
t181 272t67 332t-67 332t-181 272t-272 181t-332 67t-332 -67t-272 -181t-181 -272t-67 -332zM1653 1208v-168q-6 0 -17 -2t-45 -12.5t-69 -28t-85.5 -53.5t-97.5 -83.5t-101.5 -123.5t-102 -168t-93.5 -223t-81 -283h-207q33 153 80 285.5t98 227.5t107.5 174t110.5 130
t106 90.5t96 60t77 33t51 16.5l19 3h-936v125h1090z" />
    <glyph glyph-name="eight.alt" horiz-adv-x="2179" 
d="M123 637q0 200 75.5 379.5t204 308t308 204t379.5 75.5t379.5 -75.5t308 -204t203.5 -308t75 -379.5t-75 -379.5t-203.5 -308t-308 -204t-379.5 -75.5t-379.5 75.5t-308 204t-204 308t-75.5 379.5zM238 635q0 -174 67 -332t181 -272t272 -181t332 -67t332 67t272 181
t181 272t67 332t-67 332t-181 272t-272 181t-332 67t-332 -67t-272 -181t-181 -272t-67 -332zM1575 909q0 -62 -28.5 -112t-69.5 -77.5t-81.5 -46t-69.5 -24.5l-28 -6q7 0 18.5 -1t44.5 -7.5t63.5 -16.5t67 -30.5t63.5 -47t45 -68.5t18 -93q0 -69 -28.5 -125.5t-78 -95
t-117.5 -65t-144.5 -38.5t-162.5 -12q-108 0 -201.5 20t-168 59t-117.5 105t-43 152q0 48 16.5 89.5t42.5 70t57.5 51t63.5 35.5t58 22t43 12l16 3l-27.5 5.5t-61 22t-77 43t-61 71.5t-27.5 105q0 142 140.5 232t346.5 90q135 0 246 -39.5t176.5 -114t65.5 -168.5zM803 909
q0 -57 31 -97t80.5 -57t90.5 -23.5t82 -6.5q285 0 285 184q0 75 -72 124.5t-213 49.5t-212.5 -49.5t-71.5 -124.5zM1417 379q0 53 -27 93.5t-64.5 61.5t-87.5 34t-84.5 16.5t-66.5 3.5q-68 0 -124.5 -10.5t-104 -33.5t-74 -65t-26.5 -100q0 -98 91 -144.5t238 -46.5
q94 0 165.5 18t118 62t46.5 111z" />
    <glyph glyph-name="nine.alt" horiz-adv-x="2179" 
d="M123 637q0 200 75.5 379.5t204 308t308 204t379.5 75.5t379.5 -75.5t308 -204t203.5 -308t75 -379.5t-75 -379.5t-203.5 -308t-308 -204t-379.5 -75.5t-379.5 75.5t-308 204t-204 308t-75.5 379.5zM238 635q0 -174 67 -332t181 -272t272 -181t332 -67t332 67t272 181
t181 272t67 332t-67 332t-181 272t-272 181t-332 67t-332 -67t-272 -181t-181 -272t-67 -332zM1614 635q0 -172 -62.5 -305t-184 -210t-284.5 -77q-79 0 -147 18t-113.5 47t-82 64t-57.5 70t-34.5 64t-18.5 47l-5 18l196 59q0 -5 1.5 -13.5t8.5 -34t17.5 -48t31 -50.5
t46.5 -48t67 -34t90 -14q158 0 243 124.5t85 322.5q0 28 -4 78q-30 -106 -128.5 -174t-266.5 -68q-77 0 -147 22.5t-128 67t-92.5 119.5t-34.5 170q0 165 135.5 273t341.5 108q164 0 284.5 -77t181.5 -211t61 -308zM813 850q0 -104 69.5 -168t204.5 -64q116 0 195 63
t102 159q-34 113 -109 178t-188 65q-135 0 -204.5 -64t-69.5 -169z" />
    <glyph glyph-name="alpha.ss01" horiz-adv-x="1619" 
d="M1100 926v211h246v-865q0 -54 24.5 -86t65.5 -32q28 0 52 10.5t39 25.5t25.5 30t14.5 26l4 10l49 -182q-3 -4 -9 -11t-28.5 -25t-48.5 -31.5t-69 -24.5t-91 -11q-107 0 -176.5 62.5t-69.5 202.5v32l-7 -21t-20 -43.5t-36 -59t-56 -60.5t-78 -57t-104.5 -40t-134.5 -16
q-254 0 -411.5 167t-157.5 429q0 263 158 430.5t411 167.5q86 0 159.5 -24.5t117.5 -59.5t75.5 -70.5t43.5 -60.5zM770 154q178 0 279.5 118.5t101.5 294.5q0 114 -43 207.5t-131 151t-207 57.5q-179 0 -282 -114.5t-103 -301.5t103 -300t282 -113z" />
    <glyph glyph-name="alphatonos.ss01" horiz-adv-x="1619" 
d="M877 1681h307l-408 -385h-137zM1100 926v211h246v-865q0 -54 24.5 -86t65.5 -32q28 0 52 10.5t39 25.5t25.5 30t14.5 26l4 10l49 -182q-3 -4 -9 -11t-28.5 -25t-48.5 -31.5t-69 -24.5t-91 -11q-107 0 -176.5 62.5t-69.5 202.5v32l-7 -21t-20 -43.5t-36 -59t-56 -60.5
t-78 -57t-104.5 -40t-134.5 -16q-254 0 -411.5 167t-157.5 429q0 263 158 430.5t411 167.5q86 0 159.5 -24.5t117.5 -59.5t75.5 -70.5t43.5 -60.5zM770 154q178 0 279.5 118.5t101.5 294.5q0 114 -43 207.5t-131 151t-207 57.5q-179 0 -282 -114.5t-103 -301.5t103 -300
t282 -113z" />
    <glyph glyph-name="Pi.ss01" horiz-adv-x="1904" 
d="M1454 0v1417h-1003v-1417h-267v1591h1536v-1591h-266z" />
    </font>
</defs>
</svg>
